<?xml version="1.0" encoding="UTF-8" standalone="no"?>
<svg
   xmlns:dc="http://purl.org/dc/elements/1.1/"
   xmlns:cc="http://creativecommons.org/ns#"
   xmlns:rdf="http://www.w3.org/1999/02/22-rdf-syntax-ns#"
   xmlns:svg="http://www.w3.org/2000/svg"
   xmlns="http://www.w3.org/2000/svg"
   xmlns:sodipodi="http://sodipodi.sourceforge.net/DTD/sodipodi-0.dtd"
   xmlns:inkscape="http://www.inkscape.org/namespaces/inkscape"
   version="1.0"
   width="339.03568"
   height="212.5625"
   id="svg3109"
   inkscape:version="0.48.4 r9939"
   sodipodi:docname="pattern3tree.svg"
   inkscape:export-filename="/home/meyerd/Documents/Workspace/camunda-bpm-platform.wiki/img/execution-tree/pattern3tree.png"
   inkscape:export-xdpi="90"
   inkscape:export-ydpi="90">
  <metadata
     id="metadata3169">
    <rdf:RDF>
      <cc:Work
         rdf:about="">
        <dc:format>image/svg+xml</dc:format>
        <dc:type
           rdf:resource="http://purl.org/dc/dcmitype/StillImage" />
        <dc:title></dc:title>
      </cc:Work>
    </rdf:RDF>
  </metadata>
  <sodipodi:namedview
     pagecolor="#ffffff"
     bordercolor="#666666"
     borderopacity="1"
     objecttolerance="10"
     gridtolerance="10"
     guidetolerance="10"
     inkscape:pageopacity="0"
     inkscape:pageshadow="2"
     inkscape:window-width="1600"
     inkscape:window-height="855"
     id="namedview3167"
     showgrid="false"
     fit-margin-top="15"
     fit-margin-left="15"
     fit-margin-right="15"
     fit-margin-bottom="15"
     inkscape:zoom="0.98900576"
     inkscape:cx="345.95943"
     inkscape:cy="6.5826199"
     inkscape:window-x="0"
     inkscape:window-y="45"
     inkscape:window-maximized="0"
     inkscape:current-layer="g3113" />
  <defs
     id="defs3111" />
  <g
     id="g3113"
     transform="translate(-72.375,-30.6875)">
    <path
       style="fill:#5b9bd5;fill-opacity:1;fill-rule:evenodd;stroke:none"
       d="m 88.36122,46.655924 0,69.608836 103.51314,0 0,-69.608836 -103.51314,0 z"
       id="path3117"
       inkscape:connector-curvature="0" />
    <path
       style="fill:none;stroke:#ffffff;stroke-width:1.95024765px;stroke-linecap:butt;stroke-linejoin:miter;stroke-miterlimit:4;stroke-opacity:1;stroke-dasharray:none"
       d="m 88.36122,46.655924 103.51314,0 0,69.608836 -103.51314,0 z"
       id="path3119"
       inkscape:connector-curvature="0" />
    <g
       style="font-size:22.50285721px;font-style:normal;font-weight:normal;text-align:start;text-anchor:start;fill:#ffffff;font-family:Calibri"
       id="text3121">
      <path
         d="m 137.2179,87.152892 3.62595,0 0,-12.515016 -3.9446,0.791116 0,-2.021741 3.92262,-0.791116 2.21952,0 0,14.536757 3.62595,0 0,1.867913 -9.44944,0 0,-1.867913"
         style="font-size:22.50285721px;font-style:normal;font-weight:normal;text-align:start;text-anchor:start;fill:#ffffff;font-family:Calibri"
         id="path4598" />
    </g>
    <g
       style="font-size:19.95253372px;font-style:normal;font-weight:normal;text-align:start;text-anchor:start;fill:#000000;font-family:Calibri"
       id="text3123">
      <path
         d="m 222.32326,51.445689 1.79261,0 0,10.911542 -1.79261,0 0,-10.911542 m 0,-4.247707 1.79261,0 0,2.26999 -1.79261,0 0,-2.26999"
         style="font-size:19.95253372px;font-style:normal;font-weight:normal;text-align:start;text-anchor:start;fill:#000000;font-family:Calibri"
         id="path4583" />
      <path
         d="m 234.81307,51.76719 0,1.695186 c -0.50661,-0.259789 -1.0327,-0.454638 -1.57827,-0.584547 -0.54559,-0.12989 -1.11065,-0.194839 -1.69519,-0.194849 -0.88981,10e-6 -1.55879,0.136404 -2.00694,0.409183 -0.44166,0.272798 -0.66249,0.68198 -0.66249,1.227548 0,0.415686 0.15912,0.743681 0.47738,0.983988 0.31825,0.233825 0.958,0.457901 1.91926,0.672229 l 0.61378,0.136394 c 1.273,0.272794 2.1758,0.659244 2.7084,1.159351 0.53907,0.493622 0.80861,1.185335 0.80862,2.075142 -1e-5,1.013216 -0.4027,1.815344 -1.20806,2.406384 -0.79889,0.591042 -1.89979,0.886563 -3.30269,0.886563 -0.58455,0 -1.19508,-0.05845 -1.83158,-0.175364 -0.63002,-0.110414 -1.29575,-0.279283 -1.99721,-0.506607 l 0,-1.851065 c 0.66249,0.344235 1.31523,0.604033 1.95824,0.779395 0.64299,0.168871 1.2795,0.253305 1.90952,0.253304 0.84434,10e-7 1.49383,-0.142888 1.94849,-0.428668 0.45464,-0.292271 0.68196,-0.701454 0.68197,-1.227548 -1e-5,-0.487119 -0.16563,-0.860579 -0.49687,-1.120382 -0.32475,-0.259794 -1.04245,-0.50985 -2.15308,-0.750168 l -0.62351,-0.146137 c -1.11065,-0.233813 -1.91277,-0.591036 -2.40639,-1.071669 -0.49362,-0.487116 -0.74043,-1.152849 -0.74043,-1.997202 0,-1.026196 0.36372,-1.81858 1.09116,-2.377157 0.72743,-0.558556 1.76013,-0.83784 3.0981,-0.837851 0.66248,1.1e-5 1.28599,0.04872 1.87055,0.146137 0.58454,0.09743 1.12362,0.243572 1.61724,0.43841"
         style="font-size:19.95253372px;font-style:normal;font-weight:normal;text-align:start;text-anchor:start;fill:#000000;font-family:Calibri"
         id="path4585" />
      <path
         d="m 247.05933,48.289136 0,1.919262 c -0.74693,-0.35721 -1.45163,-0.623504 -2.11411,-0.79888 -0.66249,-0.175351 -1.30225,-0.263033 -1.91926,-0.263046 -1.07168,1.3e-5 -1.89978,0.207851 -2.48433,0.623516 -0.57805,0.41569 -0.86708,1.006731 -0.86707,1.773126 -1e-5,0.643011 0.19159,1.130133 0.5748,1.461367 0.38969,0.324757 1.12362,0.587803 2.20179,0.789138 l 1.18858,0.243561 c 1.46786,0.279292 2.54927,0.772909 3.24424,1.480853 0.70144,0.701462 1.05217,1.643231 1.05218,2.82531 -1e-5,1.40941 -0.47414,2.47783 -1.4224,3.205265 -0.94178,0.727436 -2.3252,1.091154 -4.15028,1.091154 -0.68847,0 -1.4224,-0.07794 -2.20179,-0.233819 -0.77291,-0.155879 -1.57503,-0.38645 -2.40639,-0.691713 l 0,-2.02643 c 0.79888,0.448155 1.58152,0.785893 2.34793,1.013215 0.7664,0.227325 1.51982,0.340987 2.26025,0.340986 1.12362,10e-7 1.9907,-0.220828 2.60123,-0.662487 0.61052,-0.441655 0.91579,-1.071666 0.91579,-1.890035 0,-0.714441 -0.22083,-1.273008 -0.66248,-1.675701 -0.43517,-0.402682 -1.15287,-0.704697 -2.15308,-0.906048 l -1.19832,-0.233818 c -1.46787,-0.292267 -2.5298,-0.750161 -3.18578,-1.373685 -0.656,-0.623508 -0.98399,-1.490585 -0.98399,-2.601234 0,-1.285991 0.4514,-2.299205 1.3542,-3.039644 0.90929,-0.740412 2.15957,-1.110624 3.75084,-1.110639 0.68197,1.5e-5 1.37693,0.06172 2.08489,0.185107 0.70794,0.123418 1.43213,0.308525 2.17256,0.555319"
         style="font-size:19.95253372px;font-style:normal;font-weight:normal;text-align:start;text-anchor:start;fill:#000000;font-family:Calibri"
         id="path4587" />
      <path
         d="m 258.7795,51.864615 0,1.675701 c -0.50662,-0.279275 -1.01647,-0.487113 -1.52957,-0.623517 -0.50661,-0.14288 -1.01971,-0.214324 -1.5393,-0.214334 -1.16261,1e-5 -2.06541,0.370222 -2.7084,1.110639 -0.64301,0.733939 -0.96451,1.766638 -0.96451,3.098099 0,1.331472 0.3215,2.367418 0.96451,3.107841 0.64299,0.733932 1.54579,1.100897 2.7084,1.100896 0.51959,10e-7 1.03269,-0.0682 1.5393,-0.204591 0.5131,-0.142888 1.02295,-0.353974 1.52957,-0.633259 l 0,1.656216 c -0.50012,0.233819 -1.01972,0.409183 -1.55879,0.526092 -0.5326,0.116909 -1.10091,0.175364 -1.70493,0.175364 -1.64323,0 -2.94872,-0.516349 -3.91647,-1.549049 -0.96775,-1.032697 -1.45162,-2.425866 -1.45162,-4.17951 0,-1.779614 0.48712,-3.179277 1.46136,-4.198995 0.98074,-1.019699 2.32195,-1.529554 4.02364,-1.529565 0.55206,1.1e-5 1.09114,0.05847 1.61724,0.175364 0.52609,0.110426 1.03594,0.279294 1.52957,0.506608"
         style="font-size:19.95253372px;font-style:normal;font-weight:normal;text-align:start;text-anchor:start;fill:#000000;font-family:Calibri"
         id="path4589" />
      <path
         d="m 266.14479,52.702465 c -0.96126,1e-5 -1.72118,0.376717 -2.27974,1.130124 -0.55857,0.746929 -0.83785,1.773132 -0.83785,3.078614 0,1.305492 0.27603,2.334943 0.82811,3.088356 0.55856,0.746922 1.32172,1.120382 2.28948,1.120381 0.95475,10e-7 1.71141,-0.376706 2.26999,-1.130124 0.55855,-0.753413 0.83784,-1.779616 0.83785,-3.078613 -1e-5,-1.292492 -0.2793,-2.315448 -0.83785,-3.068872 -0.55858,-0.759901 -1.31524,-1.139856 -2.26999,-1.139866 m 0,-1.519822 c 1.55878,1.1e-5 2.78308,0.506618 3.6729,1.519822 0.8898,1.013223 1.3347,2.416134 1.33471,4.208738 -10e-6,1.786119 -0.44491,3.18903 -1.33471,4.208737 -0.88982,1.013215 -2.11412,1.519822 -3.6729,1.519822 -1.5653,0 -2.79284,-0.506607 -3.68265,-1.519822 -0.88332,-1.019707 -1.32497,-2.422618 -1.32497,-4.208737 0,-1.792604 0.44165,-3.195515 1.32497,-4.208738 0.88981,-1.013204 2.11735,-1.519811 3.68265,-1.519822"
         style="font-size:19.95253372px;font-style:normal;font-weight:normal;text-align:start;text-anchor:start;fill:#000000;font-family:Calibri"
         id="path4591" />
      <path
         d="m 275.84827,60.7205 0,5.787014 -1.80236,0 0,-15.061825 1.80236,0 0,1.656216 c 0.3767,-0.649486 0.85083,-1.130113 1.42239,-1.441882 0.57805,-0.318242 1.26652,-0.477369 2.0654,-0.47738 1.32497,1.1e-5 2.39988,0.526103 3.22475,1.578277 0.83135,1.052193 1.24702,2.435619 1.24704,4.150283 -2e-5,1.714674 -0.41569,3.0981 -1.24704,4.150283 -0.82487,1.052184 -1.89978,1.578276 -3.22475,1.578276 -0.79888,0 -1.48735,-0.155879 -2.0654,-0.467637 -0.57156,-0.318253 -1.04569,-0.802128 -1.42239,-1.451625 m 6.09877,-3.809297 c -1e-5,-1.318472 -0.2728,-2.35117 -0.81837,-3.098099 -0.53909,-0.753407 -1.28276,-1.130114 -2.23102,-1.130124 -0.94827,10e-6 -1.69519,0.376717 -2.24076,1.130124 -0.53909,0.746929 -0.80863,1.779627 -0.80862,3.098099 -1e-5,1.318482 0.26953,2.354428 0.80862,3.107841 0.54557,0.746922 1.29249,1.120382 2.24076,1.120381 0.94826,10e-7 1.69193,-0.373459 2.23102,-1.120381 0.54557,-0.753413 0.81836,-1.789359 0.81837,-3.107841"
         style="font-size:19.95253372px;font-style:normal;font-weight:normal;text-align:start;text-anchor:start;fill:#000000;font-family:Calibri"
         id="path4593" />
      <path
         d="m 296.11256,56.453308 0,0.87682 -8.24211,0 c 0.0779,1.234047 0.44815,2.175816 1.11064,2.82531 0.66897,0.643003 1.59775,0.964503 2.78634,0.964502 0.68846,10e-7 1.35419,-0.08443 1.9972,-0.253303 0.64949,-0.168868 1.29249,-0.422171 1.929,-0.759911 l 0,1.695186 c -0.64301,0.272788 -1.30225,0.480627 -1.97771,0.623516 -0.67549,0.142889 -1.36071,0.214334 -2.05566,0.214334 -1.74065,0 -3.12083,-0.506607 -4.14054,-1.519822 -1.01322,-1.013212 -1.51982,-2.383648 -1.51982,-4.111313 0,-1.786108 0.48062,-3.202009 1.44188,-4.247707 0.96775,-1.052174 2.26999,-1.578266 3.90672,-1.578277 1.46786,1.1e-5 2.62721,0.474143 3.47806,1.422398 0.85732,0.941778 1.28599,2.224533 1.286,3.848267 m -1.79261,-0.526093 c -0.013,-0.980732 -0.28904,-1.763375 -0.82811,-2.34793 -0.53259,-0.584537 -1.24054,-0.87681 -2.12385,-0.87682 -1.00023,1e-5 -1.80236,0.28254 -2.40639,0.847593 -0.59754,0.56507 -0.94177,1.360703 -1.0327,2.3869 l 6.39105,-0.0097"
         style="font-size:19.95253372px;font-style:normal;font-weight:normal;text-align:start;text-anchor:start;fill:#000000;font-family:Calibri"
         id="path4595" />
    </g>
    <g
       style="font-size:19.95253372px;font-style:normal;font-weight:normal;text-align:start;text-anchor:start;fill:#000000;font-family:Calibri"
       id="text3125">
      <path
         d="m 299.53887,59.882649 2.05566,0 0,2.474582 -2.05566,0 0,-2.474582 m 0,-7.84267 2.05566,0 0,2.474581 -2.05566,0 0,-2.474581"
         style="font-size:19.95253372px;font-style:normal;font-weight:normal;text-align:start;text-anchor:start;fill:#000000;font-family:Calibri"
         id="path4580" />
    </g>
    <g
       style="font-size:19.95253372px;font-style:normal;font-weight:normal;text-align:start;text-anchor:start;fill:#000000;font-family:Calibri"
       id="text3127">
      <path
         d="m 310.90537,48.347591 0,3.098098 3.69239,0 0,1.39317 -3.69239,0 0,5.923409 c 0,0.889813 0.12015,1.461369 0.36047,1.714671 0.24681,0.253305 0.74367,0.379957 1.4906,0.379955 l 1.84132,0 0,1.500337 -1.84132,0 c -1.38344,0 -2.33819,-0.256551 -2.86428,-0.769653 -0.5261,-0.519596 -0.78914,-1.461365 -0.78914,-2.82531 l 0,-5.923409 -1.31523,0 0,-1.39317 1.31523,0 0,-3.098098 1.80235,0"
         style="font-size:19.95253372px;font-style:normal;font-weight:normal;text-align:start;text-anchor:start;fill:#000000;font-family:Calibri"
         id="path4571" />
      <path
         d="m 323.28802,53.12139 c -0.20135,-0.1169 -0.42218,-0.201334 -0.66248,-0.253303 -0.23383,-0.05845 -0.49363,-0.08767 -0.7794,-0.08768 -1.01322,9e-6 -1.79262,0.331252 -2.33819,0.993729 -0.53908,0.656 -0.80862,1.601016 -0.80862,2.835053 l 0,5.748044 -1.80235,0 0,-10.911542 1.80235,0 0,1.695186 c 0.3767,-0.662476 0.86707,-1.152846 1.47111,-1.471109 0.60403,-0.324738 1.33796,-0.487112 2.20179,-0.487123 0.1234,1.1e-5 0.25979,0.0098 0.40919,0.02923 0.14937,0.013 0.31499,0.03573 0.49686,0.0682 l 0.01,1.841322"
         style="font-size:19.95253372px;font-style:normal;font-weight:normal;text-align:start;text-anchor:start;fill:#000000;font-family:Calibri"
         id="path4573" />
      <path
         d="m 325.00269,58.051069 0,-6.60538 1.79261,0 0,6.537183 c 0,1.032703 0.20134,1.80885 0.60403,2.328445 0.40269,0.513104 1.00672,0.769655 1.8121,0.769653 0.96774,2e-6 1.7309,-0.308509 2.28948,-0.925532 0.56505,-0.617019 0.84758,-1.458116 0.84759,-2.523294 l 0,-6.186455 1.79261,0 0,10.911542 -1.79261,0 0,-1.675701 c -0.43517,0.662488 -0.94178,1.156104 -1.51982,1.480852 -0.57157,0.318253 -1.2373,0.47738 -1.99721,0.47738 -1.25353,0 -2.20504,-0.389698 -2.85453,-1.169094 -0.6495,-0.779394 -0.97425,-1.919259 -0.97425,-3.419599 m 4.51076,-6.868426 0,0"
         style="font-size:19.95253372px;font-style:normal;font-weight:normal;text-align:start;text-anchor:start;fill:#000000;font-family:Calibri"
         id="path4575" />
      <path
         d="m 347.18625,56.453308 0,0.87682 -8.24211,0 c 0.0779,1.234047 0.44814,2.175816 1.11063,2.82531 0.66898,0.643003 1.59776,0.964503 2.78634,0.964502 0.68846,10e-7 1.3542,-0.08443 1.99721,-0.253303 0.64948,-0.168868 1.29248,-0.422171 1.929,-0.759911 l 0,1.695186 c -0.64301,0.272788 -1.30225,0.480627 -1.97772,0.623516 -0.67548,0.142889 -1.3607,0.214334 -2.05565,0.214334 -1.74066,0 -3.12084,-0.506607 -4.14054,-1.519822 -1.01322,-1.013212 -1.51983,-2.383648 -1.51982,-4.111313 -1e-5,-1.786108 0.48062,-3.202009 1.44188,-4.247707 0.96774,-1.052174 2.26998,-1.578266 3.90672,-1.578277 1.46785,1.1e-5 2.6272,0.474143 3.47805,1.422398 0.85733,0.941778 1.286,2.224533 1.28601,3.848267 m -1.79261,-0.526093 c -0.013,-0.980732 -0.28904,-1.763375 -0.82811,-2.34793 -0.5326,-0.584537 -1.24055,-0.87681 -2.12386,-0.87682 -1.00023,1e-5 -1.80235,0.28254 -2.40638,0.847593 -0.59754,0.56507 -0.94177,1.360703 -1.0327,2.3869 l 6.39105,-0.0097"
         style="font-size:19.95253372px;font-style:normal;font-weight:normal;text-align:start;text-anchor:start;fill:#000000;font-family:Calibri"
         id="path4577" />
    </g>
    <g
       style="font-size:19.95253372px;font-style:normal;font-weight:normal;text-align:start;text-anchor:start;fill:#000000;font-family:Calibri"
       id="text3129">
      <path
         d="m 222.32326,75.448733 1.79261,0 0,10.911542 -1.79261,0 0,-10.911542 m 0,-4.247707 1.79261,0 0,2.26999 -1.79261,0 0,-2.26999"
         style="font-size:19.95253372px;font-style:normal;font-weight:normal;text-align:start;text-anchor:start;fill:#000000;font-family:Calibri"
         id="path4546" />
      <path
         d="m 234.81307,75.770234 0,1.695186 c -0.50661,-0.259789 -1.0327,-0.454638 -1.57827,-0.584547 -0.54559,-0.129889 -1.11065,-0.194839 -1.69519,-0.194849 -0.88981,1e-5 -1.55879,0.136404 -2.00694,0.409183 -0.44166,0.272798 -0.66249,0.68198 -0.66249,1.227549 0,0.415685 0.15912,0.74368 0.47738,0.983987 0.31825,0.233825 0.958,0.457901 1.91926,0.672229 l 0.61378,0.136394 c 1.273,0.272795 2.1758,0.659245 2.7084,1.159351 0.53907,0.493622 0.80861,1.185335 0.80862,2.075142 -1e-5,1.013216 -0.4027,1.815344 -1.20806,2.406384 -0.79889,0.591042 -1.89979,0.886563 -3.30269,0.886563 -0.58455,0 -1.19508,-0.05845 -1.83158,-0.175364 -0.63002,-0.110414 -1.29575,-0.279283 -1.99721,-0.506607 l 0,-1.851065 c 0.66249,0.344235 1.31523,0.604033 1.95824,0.779396 0.64299,0.16887 1.2795,0.253304 1.90952,0.253303 0.84434,10e-7 1.49383,-0.142888 1.94849,-0.428667 0.45464,-0.292272 0.68196,-0.701454 0.68197,-1.227549 -1e-5,-0.487119 -0.16563,-0.860579 -0.49687,-1.120381 -0.32475,-0.259795 -1.04245,-0.509851 -2.15308,-0.750169 l -0.62351,-0.146137 c -1.11065,-0.233813 -1.91277,-0.591036 -2.40639,-1.071669 -0.49362,-0.487116 -0.74043,-1.152849 -0.74043,-1.997202 0,-1.026195 0.36372,-1.81858 1.09116,-2.377157 0.72743,-0.558556 1.76013,-0.83784 3.0981,-0.837851 0.66248,1.1e-5 1.28599,0.04872 1.87055,0.146137 0.58454,0.09744 1.12362,0.243572 1.61724,0.43841"
         style="font-size:19.95253372px;font-style:normal;font-weight:normal;text-align:start;text-anchor:start;fill:#000000;font-family:Calibri"
         id="path4548" />
      <path
         d="m 249.2319,72.935182 0,2.075141 c -0.6625,-0.61701 -1.37045,-1.078152 -2.12386,-1.383427 -0.74693,-0.305251 -1.54256,-0.457882 -2.3869,-0.457895 -1.66271,1.3e-5 -2.93573,0.509867 -3.81904,1.529564 -0.88332,1.013225 -1.32497,2.481086 -1.32497,4.403586 0,1.916021 0.44165,3.383881 1.32497,4.403587 0.88331,1.013216 2.15633,1.519823 3.81904,1.519822 0.84434,10e-7 1.63997,-0.15263 2.3869,-0.457895 0.75341,-0.305261 1.46136,-0.766404 2.12386,-1.383428 l 0,2.055657 c -0.68848,0.467638 -1.41916,0.818366 -2.19205,1.052184 -0.76642,0.233819 -1.57829,0.350728 -2.43562,0.350728 -2.2018,0 -3.93595,-0.672228 -5.20246,-2.016686 -1.26652,-1.35095 -1.89978,-3.192271 -1.89978,-5.523969 0,-2.338178 0.63326,-4.179498 1.89978,-5.523968 1.26651,-1.350938 3.00066,-2.026414 5.20246,-2.026429 0.87032,1.5e-5 1.68869,0.116924 2.4551,0.350728 0.77289,0.227338 1.49708,0.571571 2.17257,1.0327"
         style="font-size:19.95253372px;font-style:normal;font-weight:normal;text-align:start;text-anchor:start;fill:#000000;font-family:Calibri"
         id="path4550" />
      <path
         d="m 256.44131,76.705509 c -0.96126,10e-6 -1.72117,0.376717 -2.27973,1.130124 -0.55857,0.746929 -0.83786,1.773132 -0.83785,3.078614 -1e-5,1.305492 0.27603,2.334943 0.8281,3.088356 0.55857,0.746922 1.32172,1.120383 2.28948,1.120381 0.95475,2e-6 1.71141,-0.376706 2.26999,-1.130124 0.55856,-0.753412 0.83784,-1.779616 0.83785,-3.078613 -10e-6,-1.292492 -0.27929,-2.315448 -0.83785,-3.068871 -0.55858,-0.759902 -1.31524,-1.139857 -2.26999,-1.139867 m 0,-1.519822 c 1.55878,1.1e-5 2.78308,0.506618 3.6729,1.519822 0.8898,1.013223 1.33471,2.416135 1.33472,4.208738 -1e-5,1.786119 -0.44492,3.18903 -1.33472,4.208737 -0.88982,1.013215 -2.11412,1.519822 -3.6729,1.519822 -1.56529,0 -2.79284,-0.506607 -3.68265,-1.519822 -0.88331,-1.019707 -1.32497,-2.422618 -1.32497,-4.208737 0,-1.792603 0.44166,-3.195515 1.32497,-4.208738 0.88981,-1.013204 2.11736,-1.519811 3.68265,-1.519822"
         style="font-size:19.95253372px;font-style:normal;font-weight:normal;text-align:start;text-anchor:start;fill:#000000;font-family:Calibri"
         id="path4552" />
      <path
         d="m 273.48085,79.77438 0,6.585895 -1.79261,0 0,-6.52744 c -1e-5,-1.032692 -0.20135,-1.805592 -0.60403,-2.318703 -0.4027,-0.513093 -1.00673,-0.769643 -1.8121,-0.769653 -0.96775,1e-5 -1.73091,0.30852 -2.28947,0.925533 -0.55857,0.617029 -0.83786,1.458127 -0.83785,2.523294 l 0,6.166969 -1.80236,0 0,-10.911542 1.80236,0 0,1.695186 c 0.42866,-0.655981 0.93202,-1.146351 1.51008,-1.471109 0.58454,-0.324738 1.25677,-0.487112 2.01668,-0.487123 1.25352,1.1e-5 2.20179,0.389709 2.8448,1.169094 0.64299,0.77291 0.96449,1.912775 0.9645,3.419599"
         style="font-size:19.95253372px;font-style:normal;font-weight:normal;text-align:start;text-anchor:start;fill:#000000;font-family:Calibri"
         id="path4554" />
      <path
         d="m 284.92822,75.867659 0,1.675701 c -0.50661,-0.279275 -1.01647,-0.487113 -1.52956,-0.623517 -0.50662,-0.14288 -1.01972,-0.214324 -1.53931,-0.214334 -1.1626,10e-6 -2.0654,0.370223 -2.7084,1.110639 -0.643,0.733939 -0.9645,1.766638 -0.9645,3.098099 0,1.331472 0.3215,2.367418 0.9645,3.107841 0.643,0.733932 1.5458,1.100898 2.7084,1.100896 0.51959,2e-6 1.03269,-0.0682 1.53931,-0.204591 0.51309,-0.142888 1.02295,-0.353974 1.52956,-0.633259 l 0,1.656216 c -0.50012,0.233819 -1.01971,0.409183 -1.55879,0.526092 -0.53259,0.116909 -1.1009,0.175364 -1.70493,0.175364 -1.64323,0 -2.94871,-0.516349 -3.91646,-1.549049 -0.96775,-1.032697 -1.45163,-2.425866 -1.45162,-4.17951 -1e-5,-1.779614 0.48712,-3.179277 1.46136,-4.198995 0.98074,-1.019699 2.32195,-1.529554 4.02363,-1.529565 0.55207,1.1e-5 1.09115,0.05847 1.61725,0.175364 0.52608,0.110426 1.03594,0.279295 1.52956,0.506608"
         style="font-size:19.95253372px;font-style:normal;font-weight:normal;text-align:start;text-anchor:start;fill:#000000;font-family:Calibri"
         id="path4556" />
      <path
         d="m 287.88019,82.054113 0,-6.60538 1.79261,0 0,6.537183 c 0,1.032703 0.20134,1.80885 0.60403,2.328445 0.40269,0.513104 1.00672,0.769655 1.8121,0.769654 0.96774,1e-6 1.7309,-0.30851 2.28947,-0.925533 0.56506,-0.617019 0.84759,-1.458116 0.8476,-2.523294 l 0,-6.186455 1.79261,0 0,10.911542 -1.79261,0 0,-1.675701 c -0.43517,0.662488 -0.94178,1.156105 -1.51982,1.480852 -0.57157,0.318253 -1.2373,0.47738 -1.99721,0.47738 -1.25353,0 -2.20504,-0.389698 -2.85453,-1.169094 -0.6495,-0.779394 -0.97425,-1.919259 -0.97425,-3.419599 m 4.51075,-6.868426 0,0"
         style="font-size:19.95253372px;font-style:normal;font-weight:normal;text-align:start;text-anchor:start;fill:#000000;font-family:Calibri"
         id="path4558" />
      <path
         d="m 307.05332,77.124434 c -0.20135,-0.1169 -0.42218,-0.201334 -0.66248,-0.253303 -0.23383,-0.05845 -0.49363,-0.08767 -0.7794,-0.08768 -1.01322,9e-6 -1.79261,0.331252 -2.33819,0.993729 -0.53908,0.656 -0.80862,1.601016 -0.80862,2.835053 l 0,5.748044 -1.80235,0 0,-10.911542 1.80235,0 0,1.695186 c 0.3767,-0.662476 0.86707,-1.152846 1.47111,-1.471109 0.60403,-0.324738 1.33796,-0.487112 2.20179,-0.487123 0.1234,1.1e-5 0.25979,0.0098 0.40919,0.02923 0.14937,0.013 0.31499,0.03573 0.49686,0.0682 l 0.01,1.841322"
         style="font-size:19.95253372px;font-style:normal;font-weight:normal;text-align:start;text-anchor:start;fill:#000000;font-family:Calibri"
         id="path4560" />
      <path
         d="m 314.92523,77.124434 c -0.20136,-0.1169 -0.42219,-0.201334 -0.66249,-0.253303 -0.23383,-0.05845 -0.49363,-0.08767 -0.7794,-0.08768 -1.01322,9e-6 -1.79261,0.331252 -2.33818,0.993729 -0.53909,0.656 -0.80863,1.601016 -0.80863,2.835053 l 0,5.748044 -1.80235,0 0,-10.911542 1.80235,0 0,1.695186 c 0.37671,-0.662476 0.86708,-1.152846 1.47111,-1.471109 0.60403,-0.324738 1.33796,-0.487112 2.2018,-0.487123 0.12339,1.1e-5 0.25979,0.0098 0.40918,0.02923 0.14937,0.013 0.315,0.03573 0.49686,0.0682 l 0.01,1.841322"
         style="font-size:19.95253372px;font-style:normal;font-weight:normal;text-align:start;text-anchor:start;fill:#000000;font-family:Calibri"
         id="path4562" />
      <path
         d="m 325.7296,80.456352 0,0.87682 -8.24211,0 c 0.0779,1.234047 0.44815,2.175816 1.11064,2.82531 0.66898,0.643003 1.59776,0.964504 2.78634,0.964502 0.68846,2e-6 1.35419,-0.08443 1.9972,-0.253303 0.64949,-0.168868 1.29249,-0.422171 1.92901,-0.759911 l 0,1.695186 c -0.64301,0.272789 -1.30225,0.480627 -1.97772,0.623516 -0.67548,0.142889 -1.3607,0.214334 -2.05566,0.214334 -1.74065,0 -3.12083,-0.506607 -4.14054,-1.519822 -1.01321,-1.013212 -1.51982,-2.383648 -1.51982,-4.111313 0,-1.786108 0.48063,-3.202009 1.44188,-4.247707 0.96775,-1.052174 2.26999,-1.578266 3.90673,-1.578277 1.46785,1.1e-5 2.6272,0.474143 3.47805,1.422398 0.85732,0.941779 1.28599,2.224533 1.286,3.848267 m -1.79261,-0.526092 c -0.013,-0.980733 -0.28903,-1.763375 -0.82811,-2.34793 -0.53259,-0.584538 -1.24054,-0.876811 -2.12385,-0.876821 -1.00023,10e-6 -1.80236,0.282541 -2.40638,0.847593 -0.59754,0.56507 -0.94178,1.360703 -1.0327,2.3869 l 6.39104,-0.0097"
         style="font-size:19.95253372px;font-style:normal;font-weight:normal;text-align:start;text-anchor:start;fill:#000000;font-family:Calibri"
         id="path4564" />
      <path
         d="m 337.74204,79.77438 0,6.585895 -1.79261,0 0,-6.52744 c -1e-5,-1.032692 -0.20135,-1.805592 -0.60403,-2.318703 -0.4027,-0.513093 -1.00673,-0.769643 -1.8121,-0.769653 -0.96775,1e-5 -1.73091,0.30852 -2.28947,0.925533 -0.55858,0.617029 -0.83786,1.458127 -0.83785,2.523294 l 0,6.166969 -1.80236,0 0,-10.911542 1.80236,0 0,1.695186 c 0.42866,-0.655981 0.93202,-1.146351 1.51007,-1.471109 0.58455,-0.324738 1.25677,-0.487112 2.01669,-0.487123 1.25352,1.1e-5 2.20179,0.389709 2.8448,1.169094 0.64299,0.77291 0.96449,1.912775 0.9645,3.419599"
         style="font-size:19.95253372px;font-style:normal;font-weight:normal;text-align:start;text-anchor:start;fill:#000000;font-family:Calibri"
         id="path4566" />
      <path
         d="m 343.11013,72.350635 0,3.098098 3.69239,0 0,1.39317 -3.69239,0 0,5.923409 c 0,0.889813 0.12015,1.461369 0.36047,1.714671 0.2468,0.253305 0.74367,0.379957 1.49059,0.379955 l 1.84133,0 0,1.500337 -1.84133,0 c -1.38343,0 -2.33819,-0.256551 -2.86428,-0.769653 -0.52609,-0.519596 -0.78914,-1.461365 -0.78913,-2.82531 l 0,-5.923409 -1.31523,0 0,-1.39317 1.31523,0 0,-3.098098 1.80235,0"
         style="font-size:19.95253372px;font-style:normal;font-weight:normal;text-align:start;text-anchor:start;fill:#000000;font-family:Calibri"
         id="path4568" />
    </g>
    <g
       style="font-size:19.95253372px;font-style:normal;font-weight:normal;text-align:start;text-anchor:start;fill:#000000;font-family:Calibri"
       id="text3131">
      <path
         d="m 342.29427,83.885693 2.05566,0 0,2.474582 -2.05566,0 0,-2.474582 m 0,-7.84267 2.05566,0 0,2.474582 -2.05566,0 0,-2.474582"
         style="font-size:19.95253372px;font-style:normal;font-weight:normal;text-align:start;text-anchor:start;fill:#000000;font-family:Calibri"
         id="path4543" />
    </g>
    <g
       style="font-size:19.95253372px;font-style:normal;font-weight:normal;text-align:start;text-anchor:start;fill:#000000;font-family:Calibri"
       id="text3133">
      <path
         d="m 357.41165,71.201026 0,1.490595 -1.71468,0 c -0.643,1.3e-5 -1.09115,0.129912 -1.34445,0.389697 -0.24682,0.259812 -0.37022,0.727449 -0.37022,1.402913 l 0,0.964502 2.95197,0 0,1.39317 -2.95197,0 0,9.518372 -1.80235,0 0,-9.518372 -1.71467,0 0,-1.39317 1.71467,0 0,-0.759911 c 0,-1.214545 0.28253,-2.09786 0.84759,-2.649945 0.56506,-0.558553 1.46137,-0.837836 2.68892,-0.837851 l 1.69519,0"
         style="font-size:19.95253372px;font-style:normal;font-weight:normal;text-align:start;text-anchor:start;fill:#000000;font-family:Calibri"
         id="path4532" />
      <path
         d="m 363.86115,80.875277 c -1.44839,5e-6 -2.45186,0.165627 -3.01042,0.496865 -0.55857,0.331248 -0.83785,0.896309 -0.83785,1.695186 0,0.636509 0.20784,1.143116 0.62352,1.519822 0.42216,0.370214 0.99372,0.55532 1.71467,0.555319 0.99372,10e-7 1.78935,-0.350726 2.3869,-1.052184 0.60402,-0.707948 0.90604,-1.64647 0.90604,-2.815568 l 0,-0.39944 -1.78286,0 m 3.57547,-0.740426 0,6.225424 -1.79261,0 0,-1.656216 c -0.40919,0.662488 -0.91904,1.152857 -1.52956,1.47111 -0.61053,0.311758 -1.35745,0.467637 -2.24076,0.467637 -1.11714,0 -2.00695,-0.311758 -2.66943,-0.935275 -0.656,-0.63001 -0.98399,-1.471107 -0.98399,-2.523294 0,-1.227544 0.40918,-2.153076 1.22755,-2.776598 0.82485,-0.62351 2.0524,-0.935268 3.68264,-0.935275 l 2.51355,0 0,-0.175364 c 0,-0.824852 -0.27279,-1.461358 -0.81836,-1.909519 -0.53909,-0.454639 -1.299,-0.681962 -2.27973,-0.681972 -0.62353,10e-6 -1.2308,0.0747 -1.82184,0.224077 -0.59105,0.149393 -1.15936,0.373469 -1.70493,0.672228 l 0,-1.656216 c 0.65599,-0.253293 1.29249,-0.441647 1.90952,-0.565062 0.61702,-0.129888 1.2178,-0.194838 1.80235,-0.194849 1.57827,1.1e-5 2.75711,0.409194 3.53651,1.227549 0.77939,0.818375 1.16908,2.058912 1.16909,3.721615"
         style="font-size:19.95253372px;font-style:normal;font-weight:normal;text-align:start;text-anchor:start;fill:#000000;font-family:Calibri"
         id="path4534" />
      <path
         d="m 371.13876,71.201026 1.79261,0 0,15.159249 -1.79261,0 0,-15.159249"
         style="font-size:19.95253372px;font-style:normal;font-weight:normal;text-align:start;text-anchor:start;fill:#000000;font-family:Calibri"
         id="path4536" />
      <path
         d="m 383.62857,75.770234 0,1.695186 c -0.50661,-0.259789 -1.0327,-0.454638 -1.57827,-0.584547 -0.54559,-0.129889 -1.11065,-0.194839 -1.69519,-0.194849 -0.88981,1e-5 -1.55879,0.136404 -2.00694,0.409183 -0.44166,0.272798 -0.66249,0.68198 -0.66249,1.227549 0,0.415685 0.15912,0.74368 0.47738,0.983987 0.31825,0.233825 0.958,0.457901 1.91926,0.672229 l 0.61378,0.136394 c 1.273,0.272795 2.1758,0.659245 2.7084,1.159351 0.53907,0.493622 0.80861,1.185335 0.80862,2.075142 -1e-5,1.013216 -0.4027,1.815344 -1.20806,2.406384 -0.79889,0.591042 -1.89979,0.886563 -3.30269,0.886563 -0.58455,0 -1.19508,-0.05845 -1.83158,-0.175364 -0.63002,-0.110414 -1.29575,-0.279283 -1.9972,-0.506607 l 0,-1.851065 c 0.66248,0.344235 1.31522,0.604033 1.95823,0.779396 0.643,0.16887 1.2795,0.253304 1.90952,0.253303 0.84434,10e-7 1.49383,-0.142888 1.94849,-0.428667 0.45464,-0.292272 0.68196,-0.701454 0.68197,-1.227549 -1e-5,-0.487119 -0.16563,-0.860579 -0.49687,-1.120381 -0.32475,-0.259795 -1.04244,-0.509851 -2.15308,-0.750169 l -0.62351,-0.146137 c -1.11065,-0.233813 -1.91277,-0.591036 -2.40639,-1.071669 -0.49362,-0.487116 -0.74043,-1.152849 -0.74043,-1.997202 0,-1.026195 0.36372,-1.81858 1.09116,-2.377157 0.72743,-0.558556 1.76013,-0.83784 3.0981,-0.837851 0.66248,1.1e-5 1.28599,0.04872 1.87055,0.146137 0.58454,0.09744 1.12362,0.243572 1.61724,0.43841"
         style="font-size:19.95253372px;font-style:normal;font-weight:normal;text-align:start;text-anchor:start;fill:#000000;font-family:Calibri"
         id="path4538" />
      <path
         d="m 396.41067,80.456352 0,0.87682 -8.24211,0 c 0.0779,1.234047 0.44815,2.175816 1.11063,2.82531 0.66898,0.643003 1.59776,0.964504 2.78635,0.964502 0.68845,2e-6 1.35419,-0.08443 1.9972,-0.253303 0.64948,-0.168868 1.29248,-0.422171 1.929,-0.759911 l 0,1.695186 c -0.64301,0.272789 -1.30225,0.480627 -1.97772,0.623516 -0.67548,0.142889 -1.3607,0.214334 -2.05565,0.214334 -1.74066,0 -3.12084,-0.506607 -4.14054,-1.519822 -1.01322,-1.013212 -1.51983,-2.383648 -1.51982,-4.111313 -10e-6,-1.786108 0.48062,-3.202009 1.44188,-4.247707 0.96774,-1.052174 2.26998,-1.578266 3.90672,-1.578277 1.46785,1.1e-5 2.6272,0.474143 3.47805,1.422398 0.85733,0.941779 1.286,2.224533 1.28601,3.848267 m -1.79261,-0.526092 c -0.013,-0.980733 -0.28904,-1.763375 -0.82811,-2.34793 -0.5326,-0.584538 -1.24055,-0.876811 -2.12386,-0.876821 -1.00023,10e-6 -1.80235,0.282541 -2.40638,0.847593 -0.59754,0.56507 -0.94177,1.360703 -1.0327,2.3869 l 6.39105,-0.0097"
         style="font-size:19.95253372px;font-style:normal;font-weight:normal;text-align:start;text-anchor:start;fill:#000000;font-family:Calibri"
         id="path4540" />
    </g>
    <g
       style="font-size:19.95253372px;font-style:normal;font-weight:normal;text-align:start;text-anchor:start;fill:#000000;font-family:Calibri"
       id="text3135">
      <path
         d="m 227.28216,104.87832 c -1.44838,1e-5 -2.45185,0.16563 -3.01042,0.49687 -0.55857,0.33124 -0.83785,0.89631 -0.83785,1.69518 0,0.63651 0.20784,1.14312 0.62352,1.51982 0.42217,0.37022 0.99373,0.55532 1.71467,0.55532 0.99373,0 1.78936,-0.35072 2.3869,-1.05218 0.60403,-0.70795 0.90604,-1.64647 0.90605,-2.81557 l 0,-0.39944 -1.78287,0 m 3.57548,-0.74042 0,6.22542 -1.79261,0 0,-1.65622 c -0.40919,0.66249 -0.91905,1.15286 -1.52957,1.47111 -0.61053,0.31176 -1.35745,0.46764 -2.24076,0.46764 -1.11714,0 -2.00695,-0.31176 -2.66943,-0.93527 -0.65599,-0.63001 -0.98399,-1.47111 -0.98399,-2.5233 0,-1.22754 0.40918,-2.15307 1.22755,-2.7766 0.82486,-0.62351 2.05241,-0.93526 3.68265,-0.93527 l 2.51355,0 0,-0.17537 c -1e-5,-0.82485 -0.2728,-1.46135 -0.81837,-1.90952 -0.53909,-0.45463 -1.299,-0.68196 -2.27973,-0.68197 -0.62352,1e-5 -1.2308,0.0747 -1.82184,0.22408 -0.59104,0.14939 -1.15935,0.37347 -1.70493,0.67223 l 0,-1.656218 c 0.65599,-0.253293 1.2925,-0.441646 1.90952,-0.565062 0.61702,-0.129888 1.21781,-0.194837 1.80236,-0.194849 1.57827,1.2e-5 2.7571,0.409194 3.53651,1.227549 0.77938,0.81837 1.16908,2.05891 1.16909,3.72162"
         style="font-size:19.95253372px;font-style:normal;font-weight:normal;text-align:start;text-anchor:start;fill:#000000;font-family:Calibri"
         id="path4529" />
    </g>
    <g
       style="font-size:19.95253372px;font-style:normal;font-weight:normal;text-align:start;text-anchor:start;fill:#000000;font-family:Calibri"
       id="text3137">
      <path
         d="m 241.77688,99.870703 0,1.675697 c -0.50662,-0.27927 -1.01647,-0.48711 -1.52956,-0.62351 -0.50662,-0.14288 -1.01972,-0.21433 -1.53931,-0.21434 -1.16261,1e-5 -2.0654,0.37023 -2.7084,1.11064 -0.64301,0.73394 -0.96451,1.76664 -0.9645,3.0981 -1e-5,1.33147 0.32149,2.36742 0.9645,3.10784 0.643,0.73393 1.54579,1.1009 2.7084,1.1009 0.51959,0 1.03269,-0.0682 1.53931,-0.20459 0.51309,-0.14289 1.02294,-0.35398 1.52956,-0.63326 l 0,1.65621 c -0.50012,0.23382 -1.01972,0.40919 -1.55879,0.5261 -0.5326,0.11691 -1.10091,0.17536 -1.70493,0.17536 -1.64323,0 -2.94872,-0.51635 -3.91646,-1.54905 -0.96776,-1.0327 -1.45163,-2.42586 -1.45163,-4.17951 0,-1.77961 0.48712,-3.17928 1.46137,-4.19899 0.98073,-1.019703 2.32194,-1.529557 4.02363,-1.529569 0.55206,1.2e-5 1.09115,0.05847 1.61725,0.175364 0.52608,0.110426 1.03593,0.279295 1.52956,0.506608"
         style="font-size:19.95253372px;font-style:normal;font-weight:normal;text-align:start;text-anchor:start;fill:#000000;font-family:Calibri"
         id="path4510" />
      <path
         d="m 246.68707,96.353679 0,3.098099 3.69239,0 0,1.393172 -3.69239,0 0,5.92341 c 0,0.88981 0.12016,1.46137 0.36047,1.71467 0.24681,0.2533 0.74367,0.37995 1.4906,0.37995 l 1.84132,0 0,1.50034 -1.84132,0 c -1.38343,0 -2.33819,-0.25655 -2.86428,-0.76965 -0.52609,-0.5196 -0.78914,-1.46137 -0.78914,-2.82531 l 0,-5.92341 -1.31523,0 0,-1.393172 1.31523,0 0,-3.098099 1.80235,0"
         style="font-size:19.95253372px;font-style:normal;font-weight:normal;text-align:start;text-anchor:start;fill:#000000;font-family:Calibri"
         id="path4512" />
      <path
         d="m 252.74688,99.451778 1.79261,0 0,10.911542 -1.79261,0 0,-10.911542 m 0,-4.247708 1.79261,0 0,2.269991 -1.79261,0 0,-2.269991"
         style="font-size:19.95253372px;font-style:normal;font-weight:normal;text-align:start;text-anchor:start;fill:#000000;font-family:Calibri"
         id="path4514" />
      <path
         d="m 256.99458,99.451778 1.89978,0 3.40986,9.157902 3.40986,-9.157902 1.89977,0 -4.09183,10.911542 -2.43561,0 -4.09183,-10.911542"
         style="font-size:19.95253372px;font-style:normal;font-weight:normal;text-align:start;text-anchor:start;fill:#000000;font-family:Calibri"
         id="path4516" />
      <path
         d="m 270.08843,99.451778 1.79261,0 0,10.911542 -1.79261,0 0,-10.911542 m 0,-4.247708 1.79261,0 0,2.269991 -1.79261,0 0,-2.269991"
         style="font-size:19.95253372px;font-style:normal;font-weight:normal;text-align:start;text-anchor:start;fill:#000000;font-family:Calibri"
         id="path4518" />
      <path
         d="m 277.39527,96.353679 0,3.098099 3.69239,0 0,1.393172 -3.69239,0 0,5.92341 c 0,0.88981 0.12015,1.46137 0.36047,1.71467 0.2468,0.2533 0.74367,0.37995 1.49059,0.37995 l 1.84133,0 0,1.50034 -1.84133,0 c -1.38343,0 -2.33819,-0.25655 -2.86427,-0.76965 -0.5261,-0.5196 -0.78914,-1.46137 -0.78914,-2.82531 l 0,-5.92341 -1.31523,0 0,-1.393172 1.31523,0 0,-3.098099 1.80235,0"
         style="font-size:19.95253372px;font-style:normal;font-weight:normal;text-align:start;text-anchor:start;fill:#000000;font-family:Calibri"
         id="path4520" />
      <path
         d="m 287.99505,111.37653 c -0.50661,1.29899 -1.00023,2.14659 -1.48085,2.54278 -0.48063,0.39619 -1.12363,0.59429 -1.929,0.59429 l -1.43214,0 0,-1.50033 1.05218,0 c 0.49361,-1e-5 0.87682,-0.11692 1.14961,-0.35073 0.27278,-0.23382 0.5748,-0.7859 0.90605,-1.65622 l 0.3215,-0.81836 -4.41333,-10.736182 1.89978,0 3.40985,8.534382 3.40986,-8.534382 1.89978,0 -4.79329,11.924752"
         style="font-size:19.95253372px;font-style:normal;font-weight:normal;text-align:start;text-anchor:start;fill:#000000;font-family:Calibri"
         id="path4522" />
      <path
         d="m 295.34086,95.817844 1.96798,0 0,14.545476 -1.96798,0 0,-14.545476"
         style="font-size:19.95253372px;font-style:normal;font-weight:normal;text-align:start;text-anchor:start;fill:#000000;font-family:Calibri"
         id="path4524" />
      <path
         d="m 308.32754,101.10799 0,-5.90392 1.79261,0 0,15.15925 -1.79261,0 0,-1.63673 c -0.37671,0.6495 -0.85409,1.13337 -1.43214,1.45162 -0.57156,0.31176 -1.26003,0.46764 -2.0654,0.46764 -1.31848,0 -2.39339,-0.52609 -3.22475,-1.57828 -0.82486,-1.05218 -1.23729,-2.4356 -1.23729,-4.15028 0,-1.71466 0.41243,-3.09809 1.23729,-4.15028 0.83136,-1.052176 1.90627,-1.578267 3.22475,-1.578279 0.80537,1.2e-5 1.49384,0.159138 2.0654,0.47738 0.57805,0.311769 1.05543,0.792399 1.43214,1.441879 m -6.10851,3.8093 c 0,1.31848 0.26954,2.35443 0.80862,3.10784 0.54557,0.74692 1.29249,1.12038 2.24076,1.12038 0.94826,0 1.69518,-0.37346 2.24077,-1.12038 0.54557,-0.75341 0.81835,-1.78936 0.81836,-3.10784 -10e-6,-1.31847 -0.27279,-2.35117 -0.81836,-3.0981 -0.54559,-0.7534 -1.29251,-1.13011 -2.24077,-1.13012 -0.94827,1e-5 -1.69519,0.37672 -2.24076,1.13012 -0.53908,0.74693 -0.80862,1.77963 -0.80862,3.0981"
         style="font-size:19.95253372px;font-style:normal;font-weight:normal;text-align:start;text-anchor:start;fill:#000000;font-family:Calibri"
         id="path4526" />
    </g>
    <g
       style="font-size:19.95253372px;font-style:normal;font-weight:normal;text-align:start;text-anchor:start;fill:#000000;font-family:Calibri"
       id="text3139">
      <path
         d="m 313.1906,107.88874 2.05566,0 0,2.47458 -2.05566,0 0,-2.47458 m 0,-7.84267 2.05566,0 0,2.47458 -2.05566,0 0,-2.47458"
         style="font-size:19.95253372px;font-style:normal;font-weight:normal;text-align:start;text-anchor:start;fill:#000000;font-family:Calibri"
         id="path4499" />
      <path
         d="m 334.89678,103.77742 0,6.5859 -1.79261,0 0,-6.52744 c -1e-5,-1.03269 -0.20135,-1.80559 -0.60403,-2.3187 -0.4027,-0.5131 -1.00673,-0.76965 -1.8121,-0.76966 -0.96775,1e-5 -1.73091,0.30852 -2.28947,0.92554 -0.55858,0.61703 -0.83786,1.45812 -0.83785,2.52329 l 0,6.16697 -1.80236,0 0,-10.911542 1.80236,0 0,1.695182 c 0.42866,-0.65598 0.93202,-1.14635 1.51007,-1.471106 0.58455,-0.324737 1.25677,-0.487111 2.01669,-0.487123 1.25352,1.2e-5 2.20179,0.389709 2.8448,1.169099 0.64299,0.77291 0.96449,1.91277 0.9645,3.41959"
         style="font-size:19.95253372px;font-style:normal;font-weight:normal;text-align:start;text-anchor:start;fill:#000000;font-family:Calibri"
         id="path4501" />
      <path
         d="m 338.30664,106.05716 0,-6.605382 1.79261,0 0,6.537182 c -10e-6,1.0327 0.20134,1.80885 0.60403,2.32845 0.40268,0.5131 1.00671,0.76965 1.81209,0.76965 0.96775,0 1.7309,-0.30851 2.28948,-0.92553 0.56505,-0.61702 0.84758,-1.45812 0.84759,-2.5233 l 0,-6.186452 1.79261,0 0,10.911542 -1.79261,0 0,-1.6757 c -0.43517,0.66249 -0.94178,1.1561 -1.51982,1.48085 -0.57156,0.31825 -1.2373,0.47738 -1.9972,0.47738 -1.25353,0 -2.20505,-0.3897 -2.85454,-1.16909 -0.6495,-0.7794 -0.97425,-1.91926 -0.97424,-3.4196 m 4.51075,-6.868429 0,0"
         style="font-size:19.95253372px;font-style:normal;font-weight:normal;text-align:start;text-anchor:start;fill:#000000;font-family:Calibri"
         id="path4503" />
      <path
         d="m 351.15692,95.20407 1.79261,0 0,15.15925 -1.79261,0 0,-15.15925"
         style="font-size:19.95253372px;font-style:normal;font-weight:normal;text-align:start;text-anchor:start;fill:#000000;font-family:Calibri"
         id="path4505" />
      <path
         d="m 356.69063,95.20407 1.79261,0 0,15.15925 -1.79261,0 0,-15.15925"
         style="font-size:19.95253372px;font-style:normal;font-weight:normal;text-align:start;text-anchor:start;fill:#000000;font-family:Calibri"
         id="path4507" />
    </g>
    <path
       style="fill:#5b9bd5;fill-opacity:1;fill-rule:evenodd;stroke:none"
       d="m 88.36122,157.67002 0,69.60884 103.51314,0 0,-69.60884 -103.51314,0 z"
       id="path3141"
       inkscape:connector-curvature="0" />
    <path
       style="fill:none;stroke:#ffffff;stroke-width:1.95024765px;stroke-linecap:butt;stroke-linejoin:miter;stroke-miterlimit:4;stroke-opacity:1;stroke-dasharray:none"
       d="m 88.36122,157.67002 103.51314,0 0,69.60884 -103.51314,0 z"
       id="path3143"
       inkscape:connector-curvature="0" />
    <g
       style="font-size:22.50285721px;font-style:normal;font-weight:normal;text-align:start;text-anchor:start;fill:#ffffff;font-family:Calibri"
       id="text3145">
      <path
         d="m 138.74519,198.11039 7.74635,0 0,1.86791 -10.41636,0 0,-1.86791 c 0.84239,-0.87169 1.98877,-2.04005 3.43915,-3.50508 1.4577,-1.47235 2.37334,-2.42096 2.74693,-2.84582 0.71053,-0.79844 1.20498,-1.47235 1.48335,-2.02175 0.28567,-0.5567 0.42851,-1.10242 0.42852,-1.63717 -10e-6,-0.87168 -0.30767,-1.58222 -0.92297,-2.13162 -0.608,-0.54937 -1.40277,-0.82406 -2.38434,-0.82407 -0.69589,1e-5 -1.43207,0.12088 -2.20853,0.36259 -0.76914,0.24174 -1.59322,0.608 -2.47224,1.09877 l 0,-2.24149 c 0.89367,-0.35892 1.72873,-0.62995 2.5052,-0.81309 0.77646,-0.18312 1.487,-0.27468 2.13162,-0.2747 1.69943,2e-5 3.05458,0.42488 4.06546,1.27458 1.01086,0.84973 1.51629,1.98513 1.51631,3.40619 -2e-5,0.67393 -0.12821,1.31488 -0.38457,1.92285 -0.24907,0.60068 -0.70689,1.31121 -1.37347,2.13162 -0.18314,0.21244 -0.76549,0.82775 -1.74705,1.84594 -0.98158,1.01088 -2.36603,2.42829 -4.15336,4.25225"
         style="font-size:22.50285721px;font-style:normal;font-weight:normal;text-align:start;text-anchor:start;fill:#ffffff;font-family:Calibri"
         id="path4496" />
    </g>
    <g
       style="font-size:19.95253372px;font-style:normal;font-weight:normal;text-align:start;text-anchor:start;fill:#000000;font-family:Calibri"
       id="text3147">
      <path
         d="m 222.32326,162.40319 1.79261,0 0,10.91154 -1.79261,0 0,-10.91154 m 0,-4.24771 1.79261,0 0,2.26999 -1.79261,0 0,-2.26999"
         style="font-size:19.95253372px;font-style:normal;font-weight:normal;text-align:start;text-anchor:start;fill:#000000;font-family:Calibri"
         id="path4481" />
      <path
         d="m 234.81307,162.72469 0,1.69518 c -0.50661,-0.25979 -1.0327,-0.45464 -1.57827,-0.58454 -0.54559,-0.12989 -1.11065,-0.19484 -1.69519,-0.19485 -0.88981,1e-5 -1.55879,0.1364 -2.00694,0.40918 -0.44166,0.2728 -0.66249,0.68198 -0.66249,1.22755 0,0.41568 0.15912,0.74368 0.47738,0.98399 0.31825,0.23382 0.958,0.4579 1.91926,0.67222 l 0.61378,0.1364 c 1.273,0.27279 2.1758,0.65924 2.7084,1.15935 0.53907,0.49362 0.80861,1.18533 0.80862,2.07514 -1e-5,1.01322 -0.4027,1.81535 -1.20806,2.40639 -0.79889,0.59104 -1.89979,0.88656 -3.30269,0.88656 -0.58455,0 -1.19508,-0.0585 -1.83158,-0.17537 -0.63002,-0.11041 -1.29575,-0.27928 -1.99721,-0.5066 l 0,-1.85107 c 0.66249,0.34424 1.31523,0.60404 1.95824,0.7794 0.64299,0.16887 1.2795,0.2533 1.90952,0.2533 0.84434,0 1.49383,-0.14289 1.94849,-0.42867 0.45464,-0.29227 0.68196,-0.70145 0.68197,-1.22754 -1e-5,-0.48712 -0.16563,-0.86058 -0.49687,-1.12039 -0.32475,-0.25979 -1.04245,-0.50985 -2.15308,-0.75016 l -0.62351,-0.14614 c -1.11065,-0.23381 -1.91277,-0.59104 -2.40639,-1.07167 -0.49362,-0.48712 -0.74043,-1.15285 -0.74043,-1.9972 0,-1.0262 0.36372,-1.81858 1.09116,-2.37716 0.72743,-0.55856 1.76013,-0.83784 3.0981,-0.83785 0.66248,1e-5 1.28599,0.0487 1.87055,0.14614 0.58454,0.0974 1.12362,0.24357 1.61724,0.43841"
         style="font-size:19.95253372px;font-style:normal;font-weight:normal;text-align:start;text-anchor:start;fill:#000000;font-family:Calibri"
         id="path4483" />
      <path
         d="m 247.05933,159.24663 0,1.91926 c -0.74693,-0.35721 -1.45163,-0.6235 -2.11411,-0.79888 -0.66249,-0.17535 -1.30225,-0.26303 -1.91926,-0.26304 -1.07168,1e-5 -1.89978,0.20785 -2.48433,0.62351 -0.57805,0.41569 -0.86708,1.00674 -0.86707,1.77313 -1e-5,0.64301 0.19159,1.13013 0.5748,1.46137 0.38969,0.32475 1.12362,0.5878 2.20179,0.78914 l 1.18858,0.24356 c 1.46786,0.27929 2.54927,0.77291 3.24424,1.48085 0.70144,0.70146 1.05217,1.64323 1.05218,2.82531 -1e-5,1.40941 -0.47414,2.47783 -1.4224,3.20526 -0.94178,0.72744 -2.3252,1.09116 -4.15028,1.09116 -0.68847,0 -1.4224,-0.0779 -2.20179,-0.23382 -0.77291,-0.15588 -1.57503,-0.38645 -2.40639,-0.69171 l 0,-2.02643 c 0.79888,0.44815 1.58152,0.78589 2.34793,1.01321 0.7664,0.22733 1.51982,0.34099 2.26025,0.34099 1.12362,0 1.9907,-0.22083 2.60123,-0.66249 0.61052,-0.44165 0.91579,-1.07167 0.91579,-1.89003 0,-0.71445 -0.22083,-1.27301 -0.66248,-1.67571 -0.43517,-0.40268 -1.15287,-0.70469 -2.15308,-0.90604 l -1.19832,-0.23382 c -1.46787,-0.29227 -2.5298,-0.75016 -3.18578,-1.37369 -0.656,-0.6235 -0.98399,-1.49058 -0.98399,-2.60123 0,-1.28599 0.4514,-2.29921 1.3542,-3.03964 0.90929,-0.74042 2.15957,-1.11063 3.75084,-1.11064 0.68197,1e-5 1.37693,0.0617 2.08489,0.1851 0.70794,0.12342 1.43213,0.30853 2.17256,0.55532"
         style="font-size:19.95253372px;font-style:normal;font-weight:normal;text-align:start;text-anchor:start;fill:#000000;font-family:Calibri"
         id="path4485" />
      <path
         d="m 258.7795,162.82211 0,1.6757 c -0.50662,-0.27927 -1.01647,-0.48711 -1.52957,-0.62351 -0.50661,-0.14288 -1.01971,-0.21433 -1.5393,-0.21434 -1.16261,10e-6 -2.06541,0.37022 -2.7084,1.11064 -0.64301,0.73394 -0.96451,1.76664 -0.96451,3.0981 0,1.33147 0.3215,2.36742 0.96451,3.10784 0.64299,0.73393 1.54579,1.1009 2.7084,1.1009 0.51959,0 1.03269,-0.0682 1.5393,-0.20459 0.5131,-0.14289 1.02295,-0.35398 1.52957,-0.63326 l 0,1.65621 c -0.50012,0.23382 -1.01972,0.40919 -1.55879,0.52609 -0.5326,0.11691 -1.10091,0.17537 -1.70493,0.17537 -1.64323,0 -2.94872,-0.51635 -3.91647,-1.54905 -0.96775,-1.0327 -1.45162,-2.42587 -1.45162,-4.17951 0,-1.77961 0.48712,-3.17928 1.46136,-4.199 0.98074,-1.01969 2.32195,-1.52955 4.02364,-1.52956 0.55206,1e-5 1.09114,0.0585 1.61724,0.17536 0.52609,0.11043 1.03594,0.2793 1.52957,0.50661"
         style="font-size:19.95253372px;font-style:normal;font-weight:normal;text-align:start;text-anchor:start;fill:#000000;font-family:Calibri"
         id="path4487" />
      <path
         d="m 266.14479,163.65996 c -0.96126,10e-6 -1.72118,0.37672 -2.27974,1.13013 -0.55857,0.74692 -0.83785,1.77313 -0.83785,3.07861 0,1.30549 0.27603,2.33494 0.82811,3.08836 0.55856,0.74692 1.32172,1.12038 2.28948,1.12038 0.95475,0 1.71141,-0.37671 2.26999,-1.13013 0.55855,-0.75341 0.83784,-1.77961 0.83785,-3.07861 -1e-5,-1.29249 -0.2793,-2.31545 -0.83785,-3.06887 -0.55858,-0.7599 -1.31524,-1.13986 -2.26999,-1.13987 m 0,-1.51982 c 1.55878,1e-5 2.78308,0.50662 3.6729,1.51982 0.8898,1.01322 1.3347,2.41614 1.33471,4.20874 -10e-6,1.78612 -0.44491,3.18903 -1.33471,4.20874 -0.88982,1.01321 -2.11412,1.51982 -3.6729,1.51982 -1.5653,0 -2.79284,-0.50661 -3.68265,-1.51982 -0.88332,-1.01971 -1.32497,-2.42262 -1.32497,-4.20874 0,-1.7926 0.44165,-3.19552 1.32497,-4.20874 0.88981,-1.0132 2.11735,-1.51981 3.68265,-1.51982"
         style="font-size:19.95253372px;font-style:normal;font-weight:normal;text-align:start;text-anchor:start;fill:#000000;font-family:Calibri"
         id="path4489" />
      <path
         d="m 275.84827,171.678 0,5.78701 -1.80236,0 0,-15.06182 1.80236,0 0,1.65621 c 0.3767,-0.64948 0.85083,-1.13011 1.42239,-1.44188 0.57805,-0.31824 1.26652,-0.47737 2.0654,-0.47738 1.32497,1e-5 2.39988,0.5261 3.22475,1.57828 0.83135,1.05219 1.24702,2.43562 1.24704,4.15028 -2e-5,1.71467 -0.41569,3.0981 -1.24704,4.15028 -0.82487,1.05219 -1.89978,1.57828 -3.22475,1.57828 -0.79888,0 -1.48735,-0.15588 -2.0654,-0.46764 -0.57156,-0.31825 -1.04569,-0.80213 -1.42239,-1.45162 m 6.09877,-3.8093 c -1e-5,-1.31847 -0.2728,-2.35117 -0.81837,-3.0981 -0.53909,-0.75341 -1.28276,-1.13011 -2.23102,-1.13012 -0.94827,1e-5 -1.69519,0.37671 -2.24076,1.13012 -0.53909,0.74693 -0.80863,1.77963 -0.80862,3.0981 -1e-5,1.31848 0.26953,2.35443 0.80862,3.10784 0.54557,0.74692 1.29249,1.12038 2.24076,1.12038 0.94826,0 1.69193,-0.37346 2.23102,-1.12038 0.54557,-0.75341 0.81836,-1.78936 0.81837,-3.10784"
         style="font-size:19.95253372px;font-style:normal;font-weight:normal;text-align:start;text-anchor:start;fill:#000000;font-family:Calibri"
         id="path4491" />
      <path
         d="m 296.11256,167.4108 0,0.87682 -8.24211,0 c 0.0779,1.23405 0.44815,2.17582 1.11064,2.82531 0.66897,0.64301 1.59775,0.96451 2.78634,0.96451 0.68846,0 1.35419,-0.0844 1.9972,-0.25331 0.64949,-0.16886 1.29249,-0.42217 1.929,-0.75991 l 0,1.69519 c -0.64301,0.27279 -1.30225,0.48063 -1.97771,0.62351 -0.67549,0.14289 -1.36071,0.21434 -2.05566,0.21434 -1.74065,0 -3.12083,-0.50661 -4.14054,-1.51982 -1.01322,-1.01322 -1.51982,-2.38365 -1.51982,-4.11132 0,-1.7861 0.48062,-3.20201 1.44188,-4.2477 0.96775,-1.05218 2.26999,-1.57827 3.90672,-1.57828 1.46786,1e-5 2.62721,0.47414 3.47806,1.4224 0.85732,0.94178 1.28599,2.22453 1.286,3.84826 m -1.79261,-0.52609 c -0.013,-0.98073 -0.28904,-1.76337 -0.82811,-2.34793 -0.53259,-0.58454 -1.24054,-0.87681 -2.12385,-0.87682 -1.00023,10e-6 -1.80236,0.28254 -2.40639,0.84759 -0.59754,0.56507 -0.94177,1.36071 -1.0327,2.3869 l 6.39105,-0.01"
         style="font-size:19.95253372px;font-style:normal;font-weight:normal;text-align:start;text-anchor:start;fill:#000000;font-family:Calibri"
         id="path4493" />
    </g>
    <g
       style="font-size:19.95253372px;font-style:normal;font-weight:normal;text-align:start;text-anchor:start;fill:#000000;font-family:Calibri"
       id="text3149">
      <path
         d="m 299.53887,170.84015 2.05566,0 0,2.47458 -2.05566,0 0,-2.47458 m 0,-7.84267 2.05566,0 0,2.47458 -2.05566,0 0,-2.47458"
         style="font-size:19.95253372px;font-style:normal;font-weight:normal;text-align:start;text-anchor:start;fill:#000000;font-family:Calibri"
         id="path4478" />
    </g>
    <g
       style="font-size:19.95253372px;font-style:normal;font-weight:normal;text-align:start;text-anchor:start;fill:#000000;font-family:Calibri"
       id="text3151">
      <path
         d="m 310.90537,159.30509 0,3.0981 3.69239,0 0,1.39317 -3.69239,0 0,5.9234 c 0,0.88982 0.12015,1.46137 0.36047,1.71468 0.24681,0.2533 0.74367,0.37995 1.4906,0.37995 l 1.84132,0 0,1.50034 -1.84132,0 c -1.38344,0 -2.33819,-0.25655 -2.86428,-0.76966 -0.5261,-0.51959 -0.78914,-1.46136 -0.78914,-2.82531 l 0,-5.9234 -1.31523,0 0,-1.39317 1.31523,0 0,-3.0981 1.80235,0"
         style="font-size:19.95253372px;font-style:normal;font-weight:normal;text-align:start;text-anchor:start;fill:#000000;font-family:Calibri"
         id="path4469" />
      <path
         d="m 323.28802,164.07889 c -0.20135,-0.1169 -0.42218,-0.20134 -0.66248,-0.25331 -0.23383,-0.0584 -0.49363,-0.0877 -0.7794,-0.0877 -1.01322,1e-5 -1.79262,0.33125 -2.33819,0.99373 -0.53908,0.656 -0.80862,1.60102 -0.80862,2.83505 l 0,5.74805 -1.80235,0 0,-10.91154 1.80235,0 0,1.69518 c 0.3767,-0.66247 0.86707,-1.15284 1.47111,-1.47111 0.60403,-0.32474 1.33796,-0.48711 2.20179,-0.48712 0.1234,1e-5 0.25979,0.01 0.40919,0.0292 0.14937,0.013 0.31499,0.0357 0.49686,0.0682 l 0.01,1.84133"
         style="font-size:19.95253372px;font-style:normal;font-weight:normal;text-align:start;text-anchor:start;fill:#000000;font-family:Calibri"
         id="path4471" />
      <path
         d="m 325.00269,169.00857 0,-6.60538 1.79261,0 0,6.53718 c 0,1.0327 0.20134,1.80885 0.60403,2.32844 0.40269,0.51311 1.00672,0.76966 1.8121,0.76966 0.96774,0 1.7309,-0.30851 2.28948,-0.92554 0.56505,-0.61701 0.84758,-1.45811 0.84759,-2.52329 l 0,-6.18645 1.79261,0 0,10.91154 -1.79261,0 0,-1.6757 c -0.43517,0.66248 -0.94178,1.1561 -1.51982,1.48085 -0.57157,0.31825 -1.2373,0.47738 -1.99721,0.47738 -1.25353,0 -2.20504,-0.3897 -2.85453,-1.16909 -0.6495,-0.7794 -0.97425,-1.91926 -0.97425,-3.4196 m 4.51076,-6.86843 0,0"
         style="font-size:19.95253372px;font-style:normal;font-weight:normal;text-align:start;text-anchor:start;fill:#000000;font-family:Calibri"
         id="path4473" />
      <path
         d="m 347.18625,167.4108 0,0.87682 -8.24211,0 c 0.0779,1.23405 0.44814,2.17582 1.11063,2.82531 0.66898,0.64301 1.59776,0.96451 2.78634,0.96451 0.68846,0 1.3542,-0.0844 1.99721,-0.25331 0.64948,-0.16886 1.29248,-0.42217 1.929,-0.75991 l 0,1.69519 c -0.64301,0.27279 -1.30225,0.48063 -1.97772,0.62351 -0.67548,0.14289 -1.3607,0.21434 -2.05565,0.21434 -1.74066,0 -3.12084,-0.50661 -4.14054,-1.51982 -1.01322,-1.01322 -1.51983,-2.38365 -1.51982,-4.11132 -1e-5,-1.7861 0.48062,-3.20201 1.44188,-4.2477 0.96774,-1.05218 2.26998,-1.57827 3.90672,-1.57828 1.46785,1e-5 2.6272,0.47414 3.47805,1.4224 0.85733,0.94178 1.286,2.22453 1.28601,3.84826 m -1.79261,-0.52609 c -0.013,-0.98073 -0.28904,-1.76337 -0.82811,-2.34793 -0.5326,-0.58454 -1.24055,-0.87681 -2.12386,-0.87682 -1.00023,10e-6 -1.80235,0.28254 -2.40638,0.84759 -0.59754,0.56507 -0.94177,1.36071 -1.0327,2.3869 l 6.39105,-0.01"
         style="font-size:19.95253372px;font-style:normal;font-weight:normal;text-align:start;text-anchor:start;fill:#000000;font-family:Calibri"
         id="path4475" />
    </g>
    <g
       style="font-size:19.95253372px;font-style:normal;font-weight:normal;text-align:start;text-anchor:start;fill:#000000;font-family:Calibri"
       id="text3153">
      <path
         d="m 222.32326,186.40622 1.79261,0 0,10.91154 -1.79261,0 0,-10.91154 m 0,-4.2477 1.79261,0 0,2.26999 -1.79261,0 0,-2.26999"
         style="font-size:19.95253372px;font-style:normal;font-weight:normal;text-align:start;text-anchor:start;fill:#000000;font-family:Calibri"
         id="path4444" />
      <path
         d="m 234.81307,186.72772 0,1.69519 c -0.50661,-0.25979 -1.0327,-0.45464 -1.57827,-0.58455 -0.54559,-0.12989 -1.11065,-0.19484 -1.69519,-0.19485 -0.88981,1e-5 -1.55879,0.13641 -2.00694,0.40919 -0.44166,0.27279 -0.66249,0.68198 -0.66249,1.22754 0,0.41569 0.15912,0.74369 0.47738,0.98399 0.31825,0.23383 0.958,0.4579 1.91926,0.67223 l 0.61378,0.1364 c 1.273,0.27279 2.1758,0.65924 2.7084,1.15935 0.53907,0.49362 0.80861,1.18533 0.80862,2.07514 -1e-5,1.01321 -0.4027,1.81534 -1.20806,2.40638 -0.79889,0.59104 -1.89979,0.88656 -3.30269,0.88657 -0.58455,-1e-5 -1.19508,-0.0585 -1.83158,-0.17537 -0.63002,-0.11041 -1.29575,-0.27928 -1.99721,-0.50661 l 0,-1.85106 c 0.66249,0.34423 1.31523,0.60403 1.95824,0.77939 0.64299,0.16888 1.2795,0.25331 1.90952,0.25331 0.84434,0 1.49383,-0.14289 1.94849,-0.42867 0.45464,-0.29227 0.68196,-0.70145 0.68197,-1.22755 -1e-5,-0.48712 -0.16563,-0.86058 -0.49687,-1.12038 -0.32475,-0.25979 -1.04245,-0.50985 -2.15308,-0.75017 l -0.62351,-0.14613 c -1.11065,-0.23382 -1.91277,-0.59104 -2.40639,-1.07167 -0.49362,-0.48712 -0.74043,-1.15285 -0.74043,-1.99721 0,-1.02619 0.36372,-1.81858 1.09116,-2.37715 0.72743,-0.55856 1.76013,-0.83784 3.0981,-0.83785 0.66248,1e-5 1.28599,0.0487 1.87055,0.14613 0.58454,0.0974 1.12362,0.24358 1.61724,0.43841"
         style="font-size:19.95253372px;font-style:normal;font-weight:normal;text-align:start;text-anchor:start;fill:#000000;font-family:Calibri"
         id="path4446" />
      <path
         d="m 249.2319,183.89267 0,2.07514 c -0.6625,-0.61701 -1.37045,-1.07815 -2.12386,-1.38343 -0.74693,-0.30525 -1.54256,-0.45788 -2.3869,-0.45789 -1.66271,1e-5 -2.93573,0.50987 -3.81904,1.52956 -0.88332,1.01323 -1.32497,2.48109 -1.32497,4.40359 0,1.91602 0.44165,3.38388 1.32497,4.40359 0.88331,1.01321 2.15633,1.51982 3.81904,1.51982 0.84434,0 1.63997,-0.15263 2.3869,-0.4579 0.75341,-0.30526 1.46136,-0.7664 2.12386,-1.38342 l 0,2.05565 c -0.68848,0.46764 -1.41916,0.81837 -2.19205,1.05219 -0.76642,0.23382 -1.57829,0.35072 -2.43562,0.35073 -2.2018,-1e-5 -3.93595,-0.67223 -5.20246,-2.01669 -1.26652,-1.35095 -1.89978,-3.19227 -1.89978,-5.52397 0,-2.33818 0.63326,-4.1795 1.89978,-5.52397 1.26651,-1.35094 3.00066,-2.02641 5.20246,-2.02643 0.87032,2e-5 1.68869,0.11693 2.4551,0.35073 0.77289,0.22734 1.49708,0.57157 2.17257,1.0327"
         style="font-size:19.95253372px;font-style:normal;font-weight:normal;text-align:start;text-anchor:start;fill:#000000;font-family:Calibri"
         id="path4448" />
      <path
         d="m 256.44131,187.663 c -0.96126,1e-5 -1.72117,0.37672 -2.27973,1.13012 -0.55857,0.74693 -0.83786,1.77313 -0.83785,3.07862 -1e-5,1.30549 0.27603,2.33494 0.8281,3.08835 0.55857,0.74692 1.32172,1.12038 2.28948,1.12038 0.95475,0 1.71141,-0.3767 2.26999,-1.13012 0.55856,-0.75341 0.83784,-1.77962 0.83785,-3.07861 -10e-6,-1.2925 -0.27929,-2.31545 -0.83785,-3.06888 -0.55858,-0.7599 -1.31524,-1.13985 -2.26999,-1.13986 m 0,-1.51982 c 1.55878,1e-5 2.78308,0.50661 3.6729,1.51982 0.8898,1.01322 1.33471,2.41613 1.33472,4.20874 -1e-5,1.78611 -0.44492,3.18903 -1.33472,4.20873 -0.88982,1.01322 -2.11412,1.51982 -3.6729,1.51983 -1.56529,-1e-5 -2.79284,-0.50661 -3.68265,-1.51983 -0.88331,-1.0197 -1.32497,-2.42262 -1.32497,-4.20873 0,-1.79261 0.44166,-3.19552 1.32497,-4.20874 0.88981,-1.01321 2.11736,-1.51981 3.68265,-1.51982"
         style="font-size:19.95253372px;font-style:normal;font-weight:normal;text-align:start;text-anchor:start;fill:#000000;font-family:Calibri"
         id="path4450" />
      <path
         d="m 273.48085,190.73187 0,6.58589 -1.79261,0 0,-6.52744 c -1e-5,-1.03269 -0.20135,-1.80559 -0.60403,-2.3187 -0.4027,-0.51309 -1.00673,-0.76964 -1.8121,-0.76965 -0.96775,1e-5 -1.73091,0.30852 -2.28947,0.92553 -0.55857,0.61703 -0.83786,1.45813 -0.83785,2.52329 l 0,6.16697 -1.80236,0 0,-10.91154 1.80236,0 0,1.69519 c 0.42866,-0.65598 0.93202,-1.14635 1.51008,-1.47111 0.58454,-0.32474 1.25677,-0.48711 2.01668,-0.48712 1.25352,1e-5 2.20179,0.38971 2.8448,1.16909 0.64299,0.77291 0.96449,1.91278 0.9645,3.4196"
         style="font-size:19.95253372px;font-style:normal;font-weight:normal;text-align:start;text-anchor:start;fill:#000000;font-family:Calibri"
         id="path4452" />
      <path
         d="m 284.92822,186.82515 0,1.6757 c -0.50661,-0.27928 -1.01647,-0.48711 -1.52956,-0.62352 -0.50662,-0.14288 -1.01972,-0.21432 -1.53931,-0.21433 -1.1626,1e-5 -2.0654,0.37022 -2.7084,1.11064 -0.643,0.73394 -0.9645,1.76663 -0.9645,3.0981 0,1.33147 0.3215,2.36741 0.9645,3.10784 0.643,0.73393 1.5458,1.10089 2.7084,1.10089 0.51959,0 1.03269,-0.0682 1.53931,-0.20459 0.51309,-0.14289 1.02295,-0.35397 1.52956,-0.63326 l 0,1.65622 c -0.50012,0.23382 -1.01971,0.40918 -1.55879,0.52609 -0.53259,0.11691 -1.1009,0.17536 -1.70493,0.17537 -1.64323,-1e-5 -2.94871,-0.51635 -3.91646,-1.54905 -0.96775,-1.0327 -1.45163,-2.42587 -1.45162,-4.17951 -1e-5,-1.77962 0.48712,-3.17928 1.46136,-4.199 0.98074,-1.0197 2.32195,-1.52955 4.02363,-1.52956 0.55207,1e-5 1.09115,0.0585 1.61725,0.17536 0.52608,0.11043 1.03594,0.27929 1.52956,0.50661"
         style="font-size:19.95253372px;font-style:normal;font-weight:normal;text-align:start;text-anchor:start;fill:#000000;font-family:Calibri"
         id="path4454" />
      <path
         d="m 287.88019,193.0116 0,-6.60538 1.79261,0 0,6.53719 c 0,1.0327 0.20134,1.80885 0.60403,2.32844 0.40269,0.5131 1.00672,0.76965 1.8121,0.76965 0.96774,0 1.7309,-0.30851 2.28947,-0.92553 0.56506,-0.61702 0.84759,-1.45812 0.8476,-2.52329 l 0,-6.18646 1.79261,0 0,10.91154 -1.79261,0 0,-1.6757 c -0.43517,0.66249 -0.94178,1.15611 -1.51982,1.48086 -0.57157,0.31825 -1.2373,0.47737 -1.99721,0.47738 -1.25353,-1e-5 -2.20504,-0.3897 -2.85453,-1.1691 -0.6495,-0.77939 -0.97425,-1.91926 -0.97425,-3.4196 m 4.51075,-6.86842 0,0"
         style="font-size:19.95253372px;font-style:normal;font-weight:normal;text-align:start;text-anchor:start;fill:#000000;font-family:Calibri"
         id="path4456" />
      <path
         d="m 307.05332,188.08192 c -0.20135,-0.1169 -0.42218,-0.20133 -0.66248,-0.2533 -0.23383,-0.0584 -0.49363,-0.0877 -0.7794,-0.0877 -1.01322,1e-5 -1.79261,0.33125 -2.33819,0.99373 -0.53908,0.656 -0.80862,1.60101 -0.80862,2.83505 l 0,5.74804 -1.80235,0 0,-10.91154 1.80235,0 0,1.69519 c 0.3767,-0.66248 0.86707,-1.15285 1.47111,-1.47111 0.60403,-0.32474 1.33796,-0.48711 2.20179,-0.48712 0.1234,1e-5 0.25979,0.01 0.40919,0.0292 0.14937,0.013 0.31499,0.0357 0.49686,0.0682 l 0.01,1.84132"
         style="font-size:19.95253372px;font-style:normal;font-weight:normal;text-align:start;text-anchor:start;fill:#000000;font-family:Calibri"
         id="path4458" />
      <path
         d="m 314.92523,188.08192 c -0.20136,-0.1169 -0.42219,-0.20133 -0.66249,-0.2533 -0.23383,-0.0584 -0.49363,-0.0877 -0.7794,-0.0877 -1.01322,1e-5 -1.79261,0.33125 -2.33818,0.99373 -0.53909,0.656 -0.80863,1.60101 -0.80863,2.83505 l 0,5.74804 -1.80235,0 0,-10.91154 1.80235,0 0,1.69519 c 0.37671,-0.66248 0.86708,-1.15285 1.47111,-1.47111 0.60403,-0.32474 1.33796,-0.48711 2.2018,-0.48712 0.12339,1e-5 0.25979,0.01 0.40918,0.0292 0.14937,0.013 0.315,0.0357 0.49686,0.0682 l 0.01,1.84132"
         style="font-size:19.95253372px;font-style:normal;font-weight:normal;text-align:start;text-anchor:start;fill:#000000;font-family:Calibri"
         id="path4460" />
      <path
         d="m 325.7296,191.41384 0,0.87682 -8.24211,0 c 0.0779,1.23405 0.44815,2.17582 1.11064,2.82531 0.66898,0.643 1.59776,0.9645 2.78634,0.9645 0.68846,0 1.35419,-0.0844 1.9972,-0.2533 0.64949,-0.16887 1.29249,-0.42217 1.92901,-0.75991 l 0,1.69518 c -0.64301,0.27279 -1.30225,0.48063 -1.97772,0.62352 -0.67548,0.14289 -1.3607,0.21433 -2.05566,0.21434 -1.74065,-1e-5 -3.12083,-0.50661 -4.14054,-1.51983 -1.01321,-1.01321 -1.51982,-2.38365 -1.51982,-4.11131 0,-1.78611 0.48063,-3.20201 1.44188,-4.24771 0.96775,-1.05217 2.26999,-1.57826 3.90673,-1.57827 1.46785,1e-5 2.6272,0.47414 3.47805,1.42239 0.85732,0.94178 1.28599,2.22454 1.286,3.84827 m -1.79261,-0.52609 c -0.013,-0.98073 -0.28903,-1.76338 -0.82811,-2.34793 -0.53259,-0.58454 -1.24054,-0.87681 -2.12385,-0.87682 -1.00023,1e-5 -1.80236,0.28254 -2.40638,0.84759 -0.59754,0.56507 -0.94178,1.3607 -1.0327,2.3869 l 6.39104,-0.01"
         style="font-size:19.95253372px;font-style:normal;font-weight:normal;text-align:start;text-anchor:start;fill:#000000;font-family:Calibri"
         id="path4462" />
      <path
         d="m 337.74204,190.73187 0,6.58589 -1.79261,0 0,-6.52744 c -1e-5,-1.03269 -0.20135,-1.80559 -0.60403,-2.3187 -0.4027,-0.51309 -1.00673,-0.76964 -1.8121,-0.76965 -0.96775,1e-5 -1.73091,0.30852 -2.28947,0.92553 -0.55858,0.61703 -0.83786,1.45813 -0.83785,2.52329 l 0,6.16697 -1.80236,0 0,-10.91154 1.80236,0 0,1.69519 c 0.42866,-0.65598 0.93202,-1.14635 1.51007,-1.47111 0.58455,-0.32474 1.25677,-0.48711 2.01669,-0.48712 1.25352,1e-5 2.20179,0.38971 2.8448,1.16909 0.64299,0.77291 0.96449,1.91278 0.9645,3.4196"
         style="font-size:19.95253372px;font-style:normal;font-weight:normal;text-align:start;text-anchor:start;fill:#000000;font-family:Calibri"
         id="path4464" />
      <path
         d="m 343.11013,183.30812 0,3.0981 3.69239,0 0,1.39317 -3.69239,0 0,5.92341 c 0,0.88981 0.12015,1.46137 0.36047,1.71467 0.2468,0.25331 0.74367,0.37996 1.49059,0.37996 l 1.84133,0 0,1.50033 -1.84133,0 c -1.38343,0 -2.33819,-0.25655 -2.86428,-0.76965 -0.52609,-0.5196 -0.78914,-1.46136 -0.78913,-2.82531 l 0,-5.92341 -1.31523,0 0,-1.39317 1.31523,0 0,-3.0981 1.80235,0"
         style="font-size:19.95253372px;font-style:normal;font-weight:normal;text-align:start;text-anchor:start;fill:#000000;font-family:Calibri"
         id="path4466" />
    </g>
    <g
       style="font-size:19.95253372px;font-style:normal;font-weight:normal;text-align:start;text-anchor:start;fill:#000000;font-family:Calibri"
       id="text3155">
      <path
         d="m 342.29427,194.84318 2.05566,0 0,2.47458 -2.05566,0 0,-2.47458 m 0,-7.84267 2.05566,0 0,2.47458 -2.05566,0 0,-2.47458"
         style="font-size:19.95253372px;font-style:normal;font-weight:normal;text-align:start;text-anchor:start;fill:#000000;font-family:Calibri"
         id="path4441" />
    </g>
    <g
       style="font-size:19.95253372px;font-style:normal;font-weight:normal;text-align:start;text-anchor:start;fill:#000000;font-family:Calibri"
       id="text3157">
      <path
         d="m 357.41165,182.15852 0,1.49059 -1.71468,0 c -0.643,1e-5 -1.09115,0.12991 -1.34445,0.3897 -0.24682,0.25981 -0.37022,0.72745 -0.37022,1.40291 l 0,0.9645 2.95197,0 0,1.39317 -2.95197,0 0,9.51837 -1.80235,0 0,-9.51837 -1.71467,0 0,-1.39317 1.71467,0 0,-0.75991 c 0,-1.21454 0.28253,-2.09786 0.84759,-2.64994 0.56506,-0.55856 1.46137,-0.83784 2.68892,-0.83785 l 1.69519,0"
         style="font-size:19.95253372px;font-style:normal;font-weight:normal;text-align:start;text-anchor:start;fill:#000000;font-family:Calibri"
         id="path4430" />
      <path
         d="m 363.86115,191.83277 c -1.44839,0 -2.45186,0.16562 -3.01042,0.49686 -0.55857,0.33125 -0.83785,0.89631 -0.83785,1.69519 0,0.63651 0.20784,1.14311 0.62352,1.51982 0.42216,0.37021 0.99372,0.55532 1.71467,0.55532 0.99372,0 1.78935,-0.35073 2.3869,-1.05219 0.60402,-0.70794 0.90604,-1.64647 0.90604,-2.81556 l 0,-0.39944 -1.78286,0 m 3.57547,-0.74043 0,6.22542 -1.79261,0 0,-1.65621 c -0.40919,0.66249 -0.91904,1.15285 -1.52956,1.47111 -0.61053,0.31176 -1.35745,0.46763 -2.24076,0.46764 -1.11714,-1e-5 -2.00695,-0.31176 -2.66943,-0.93528 -0.656,-0.63001 -0.98399,-1.47111 -0.98399,-2.52329 0,-1.22755 0.40918,-2.15308 1.22755,-2.7766 0.82485,-0.62351 2.0524,-0.93527 3.68264,-0.93528 l 2.51355,0 0,-0.17536 c 0,-0.82485 -0.27279,-1.46136 -0.81836,-1.90952 -0.53909,-0.45464 -1.299,-0.68196 -2.27973,-0.68197 -0.62353,1e-5 -1.2308,0.0747 -1.82184,0.22407 -0.59105,0.1494 -1.15936,0.37347 -1.70493,0.67223 l 0,-1.65621 c 0.65599,-0.2533 1.29249,-0.44165 1.90952,-0.56506 0.61702,-0.12989 1.2178,-0.19484 1.80235,-0.19485 1.57827,1e-5 2.75711,0.40919 3.53651,1.22754 0.77939,0.81838 1.16908,2.05892 1.16909,3.72162"
         style="font-size:19.95253372px;font-style:normal;font-weight:normal;text-align:start;text-anchor:start;fill:#000000;font-family:Calibri"
         id="path4432" />
      <path
         d="m 371.13876,182.15852 1.79261,0 0,15.15924 -1.79261,0 0,-15.15924"
         style="font-size:19.95253372px;font-style:normal;font-weight:normal;text-align:start;text-anchor:start;fill:#000000;font-family:Calibri"
         id="path4434" />
      <path
         d="m 383.62857,186.72772 0,1.69519 c -0.50661,-0.25979 -1.0327,-0.45464 -1.57827,-0.58455 -0.54559,-0.12989 -1.11065,-0.19484 -1.69519,-0.19485 -0.88981,1e-5 -1.55879,0.13641 -2.00694,0.40919 -0.44166,0.27279 -0.66249,0.68198 -0.66249,1.22754 0,0.41569 0.15912,0.74369 0.47738,0.98399 0.31825,0.23383 0.958,0.4579 1.91926,0.67223 l 0.61378,0.1364 c 1.273,0.27279 2.1758,0.65924 2.7084,1.15935 0.53907,0.49362 0.80861,1.18533 0.80862,2.07514 -1e-5,1.01321 -0.4027,1.81534 -1.20806,2.40638 -0.79889,0.59104 -1.89979,0.88656 -3.30269,0.88657 -0.58455,-1e-5 -1.19508,-0.0585 -1.83158,-0.17537 -0.63002,-0.11041 -1.29575,-0.27928 -1.9972,-0.50661 l 0,-1.85106 c 0.66248,0.34423 1.31522,0.60403 1.95823,0.77939 0.643,0.16888 1.2795,0.25331 1.90952,0.25331 0.84434,0 1.49383,-0.14289 1.94849,-0.42867 0.45464,-0.29227 0.68196,-0.70145 0.68197,-1.22755 -1e-5,-0.48712 -0.16563,-0.86058 -0.49687,-1.12038 -0.32475,-0.25979 -1.04244,-0.50985 -2.15308,-0.75017 l -0.62351,-0.14613 c -1.11065,-0.23382 -1.91277,-0.59104 -2.40639,-1.07167 -0.49362,-0.48712 -0.74043,-1.15285 -0.74043,-1.99721 0,-1.02619 0.36372,-1.81858 1.09116,-2.37715 0.72743,-0.55856 1.76013,-0.83784 3.0981,-0.83785 0.66248,1e-5 1.28599,0.0487 1.87055,0.14613 0.58454,0.0974 1.12362,0.24358 1.61724,0.43841"
         style="font-size:19.95253372px;font-style:normal;font-weight:normal;text-align:start;text-anchor:start;fill:#000000;font-family:Calibri"
         id="path4436" />
      <path
         d="m 396.41067,191.41384 0,0.87682 -8.24211,0 c 0.0779,1.23405 0.44815,2.17582 1.11063,2.82531 0.66898,0.643 1.59776,0.9645 2.78635,0.9645 0.68845,0 1.35419,-0.0844 1.9972,-0.2533 0.64948,-0.16887 1.29248,-0.42217 1.929,-0.75991 l 0,1.69518 c -0.64301,0.27279 -1.30225,0.48063 -1.97772,0.62352 -0.67548,0.14289 -1.3607,0.21433 -2.05565,0.21434 -1.74066,-1e-5 -3.12084,-0.50661 -4.14054,-1.51983 -1.01322,-1.01321 -1.51983,-2.38365 -1.51982,-4.11131 -10e-6,-1.78611 0.48062,-3.20201 1.44188,-4.24771 0.96774,-1.05217 2.26998,-1.57826 3.90672,-1.57827 1.46785,1e-5 2.6272,0.47414 3.47805,1.42239 0.85733,0.94178 1.286,2.22454 1.28601,3.84827 m -1.79261,-0.52609 c -0.013,-0.98073 -0.28904,-1.76338 -0.82811,-2.34793 -0.5326,-0.58454 -1.24055,-0.87681 -2.12386,-0.87682 -1.00023,1e-5 -1.80235,0.28254 -2.40638,0.84759 -0.59754,0.56507 -0.94177,1.3607 -1.0327,2.3869 l 6.39105,-0.01"
         style="font-size:19.95253372px;font-style:normal;font-weight:normal;text-align:start;text-anchor:start;fill:#000000;font-family:Calibri"
         id="path4438" />
    </g>
    <g
       style="font-size:19.95253372px;font-style:normal;font-weight:normal;text-align:start;text-anchor:start;fill:#000000;font-family:Calibri"
       id="text3159">
      <path
         d="m 227.28216,215.83582 c -1.44838,0 -2.45185,0.16562 -3.01042,0.49686 -0.55857,0.33125 -0.83785,0.89631 -0.83785,1.69519 0,0.63651 0.20784,1.14311 0.62352,1.51982 0.42217,0.37021 0.99373,0.55532 1.71467,0.55532 0.99373,0 1.78936,-0.35073 2.3869,-1.05218 0.60403,-0.70795 0.90604,-1.64647 0.90605,-2.81557 l 0,-0.39944 -1.78287,0 m 3.57548,-0.74043 0,6.22543 -1.79261,0 0,-1.65622 c -0.40919,0.66249 -0.91905,1.15286 -1.52957,1.47111 -0.61053,0.31176 -1.35745,0.46764 -2.24076,0.46764 -1.11714,0 -2.00695,-0.31176 -2.66943,-0.93528 -0.65599,-0.63001 -0.98399,-1.47111 -0.98399,-2.52329 0,-1.22755 0.40918,-2.15308 1.22755,-2.7766 0.82486,-0.62351 2.05241,-0.93527 3.68265,-0.93527 l 2.51355,0 0,-0.17537 c -1e-5,-0.82485 -0.2728,-1.46136 -0.81837,-1.90952 -0.53909,-0.45464 -1.299,-0.68196 -2.27973,-0.68197 -0.62352,10e-6 -1.2308,0.0747 -1.82184,0.22408 -0.59104,0.14939 -1.15935,0.37347 -1.70493,0.67223 l 0,-1.65622 c 0.65599,-0.25329 1.2925,-0.44165 1.90952,-0.56506 0.61702,-0.12989 1.21781,-0.19484 1.80236,-0.19485 1.57827,1e-5 2.7571,0.40919 3.53651,1.22755 0.77938,0.81837 1.16908,2.05891 1.16909,3.72161"
         style="font-size:19.95253372px;font-style:normal;font-weight:normal;text-align:start;text-anchor:start;fill:#000000;font-family:Calibri"
         id="path4427" />
    </g>
    <g
       style="font-size:19.95253372px;font-style:normal;font-weight:normal;text-align:start;text-anchor:start;fill:#000000;font-family:Calibri"
       id="text3161">
      <path
         d="m 241.77688,210.8282 0,1.6757 c -0.50662,-0.27927 -1.01647,-0.48711 -1.52956,-0.62352 -0.50662,-0.14288 -1.01972,-0.21432 -1.53931,-0.21433 -1.16261,10e-6 -2.0654,0.37022 -2.7084,1.11064 -0.64301,0.73394 -0.96451,1.76664 -0.9645,3.0981 -1e-5,1.33147 0.32149,2.36742 0.9645,3.10784 0.643,0.73393 1.54579,1.1009 2.7084,1.1009 0.51959,0 1.03269,-0.0682 1.53931,-0.2046 0.51309,-0.14288 1.02294,-0.35397 1.52956,-0.63326 l 0,1.65622 c -0.50012,0.23382 -1.01972,0.40918 -1.55879,0.52609 -0.5326,0.11691 -1.10091,0.17537 -1.70493,0.17537 -1.64323,0 -2.94872,-0.51635 -3.91646,-1.54905 -0.96776,-1.0327 -1.45163,-2.42587 -1.45163,-4.17951 0,-1.77962 0.48712,-3.17928 1.46137,-4.199 0.98073,-1.0197 2.32194,-1.52955 4.02363,-1.52956 0.55206,1e-5 1.09115,0.0585 1.61725,0.17536 0.52608,0.11043 1.03593,0.2793 1.52956,0.50661"
         style="font-size:19.95253372px;font-style:normal;font-weight:normal;text-align:start;text-anchor:start;fill:#000000;font-family:Calibri"
         id="path4408" />
      <path
         d="m 246.68707,207.31118 0,3.09809 3.69239,0 0,1.39317 -3.69239,0 0,5.92341 c 0,0.88982 0.12016,1.46137 0.36047,1.71467 0.24681,0.25331 0.74367,0.37996 1.4906,0.37996 l 1.84132,0 0,1.50034 -1.84132,0 c -1.38343,0 -2.33819,-0.25655 -2.86428,-0.76966 -0.52609,-0.51959 -0.78914,-1.46136 -0.78914,-2.82531 l 0,-5.92341 -1.31523,0 0,-1.39317 1.31523,0 0,-3.09809 1.80235,0"
         style="font-size:19.95253372px;font-style:normal;font-weight:normal;text-align:start;text-anchor:start;fill:#000000;font-family:Calibri"
         id="path4410" />
      <path
         d="m 252.74688,210.40927 1.79261,0 0,10.91155 -1.79261,0 0,-10.91155 m 0,-4.2477 1.79261,0 0,2.26999 -1.79261,0 0,-2.26999"
         style="font-size:19.95253372px;font-style:normal;font-weight:normal;text-align:start;text-anchor:start;fill:#000000;font-family:Calibri"
         id="path4412" />
      <path
         d="m 256.99458,210.40927 1.89978,0 3.40986,9.15791 3.40986,-9.15791 1.89977,0 -4.09183,10.91155 -2.43561,0 -4.09183,-10.91155"
         style="font-size:19.95253372px;font-style:normal;font-weight:normal;text-align:start;text-anchor:start;fill:#000000;font-family:Calibri"
         id="path4414" />
      <path
         d="m 270.08843,210.40927 1.79261,0 0,10.91155 -1.79261,0 0,-10.91155 m 0,-4.2477 1.79261,0 0,2.26999 -1.79261,0 0,-2.26999"
         style="font-size:19.95253372px;font-style:normal;font-weight:normal;text-align:start;text-anchor:start;fill:#000000;font-family:Calibri"
         id="path4416" />
      <path
         d="m 277.39527,207.31118 0,3.09809 3.69239,0 0,1.39317 -3.69239,0 0,5.92341 c 0,0.88982 0.12015,1.46137 0.36047,1.71467 0.2468,0.25331 0.74367,0.37996 1.49059,0.37996 l 1.84133,0 0,1.50034 -1.84133,0 c -1.38343,0 -2.33819,-0.25655 -2.86427,-0.76966 -0.5261,-0.51959 -0.78914,-1.46136 -0.78914,-2.82531 l 0,-5.92341 -1.31523,0 0,-1.39317 1.31523,0 0,-3.09809 1.80235,0"
         style="font-size:19.95253372px;font-style:normal;font-weight:normal;text-align:start;text-anchor:start;fill:#000000;font-family:Calibri"
         id="path4418" />
      <path
         d="m 287.99505,222.33403 c -0.50661,1.29899 -1.00023,2.14658 -1.48085,2.54278 -0.48063,0.39619 -1.12363,0.59428 -1.929,0.59429 l -1.43214,0 0,-1.50034 1.05218,0 c 0.49361,0 0.87682,-0.11691 1.14961,-0.35073 0.27278,-0.23382 0.5748,-0.78589 0.90605,-1.65621 l 0.3215,-0.81837 -4.41333,-10.73618 1.89978,0 3.40985,8.53439 3.40986,-8.53439 1.89978,0 -4.79329,11.92476"
         style="font-size:19.95253372px;font-style:normal;font-weight:normal;text-align:start;text-anchor:start;fill:#000000;font-family:Calibri"
         id="path4420" />
      <path
         d="m 295.34086,206.77534 1.96798,0 0,14.54548 -1.96798,0 0,-14.54548"
         style="font-size:19.95253372px;font-style:normal;font-weight:normal;text-align:start;text-anchor:start;fill:#000000;font-family:Calibri"
         id="path4422" />
      <path
         d="m 308.32754,212.06549 0,-5.90392 1.79261,0 0,15.15925 -1.79261,0 0,-1.63674 c -0.37671,0.6495 -0.85409,1.13338 -1.43214,1.45163 -0.57156,0.31176 -1.26003,0.46764 -2.0654,0.46764 -1.31848,0 -2.39339,-0.52609 -3.22475,-1.57828 -0.82486,-1.05218 -1.23729,-2.43561 -1.23729,-4.15028 0,-1.71467 0.41243,-3.09809 1.23729,-4.15029 0.83136,-1.05217 1.90627,-1.57826 3.22475,-1.57827 0.80537,1e-5 1.49384,0.15914 2.0654,0.47738 0.57805,0.31177 1.05543,0.79239 1.43214,1.44188 m -6.10851,3.8093 c 0,1.31848 0.26954,2.35443 0.80862,3.10784 0.54557,0.74692 1.29249,1.12038 2.24076,1.12038 0.94826,0 1.69518,-0.37346 2.24077,-1.12038 0.54557,-0.75341 0.81835,-1.78936 0.81836,-3.10784 -10e-6,-1.31847 -0.27279,-2.35117 -0.81836,-3.0981 -0.54559,-0.75341 -1.29251,-1.13012 -2.24077,-1.13012 -0.94827,0 -1.69519,0.37671 -2.24076,1.13012 -0.53908,0.74693 -0.80862,1.77963 -0.80862,3.0981"
         style="font-size:19.95253372px;font-style:normal;font-weight:normal;text-align:start;text-anchor:start;fill:#000000;font-family:Calibri"
         id="path4424" />
    </g>
    <g
       style="font-size:19.95253372px;font-style:normal;font-weight:normal;text-align:start;text-anchor:start;fill:#000000;font-family:Calibri"
       id="text3163">
      <path
         d="m 313.1906,218.84623 2.05566,0 0,2.47459 -2.05566,0 0,-2.47459 m 0,-7.84267 2.05566,0 0,2.47459 -2.05566,0 0,-2.47459"
         style="font-size:19.95253372px;font-style:normal;font-weight:normal;text-align:start;text-anchor:start;fill:#000000;font-family:Calibri"
         id="path4403" />
      <path
         d="m 330.76598,208.71409 -2.66943,7.23864 5.3486,0 -2.67917,-7.23864 m -1.11064,-1.93875 2.23102,0 5.54346,14.54548 -2.04592,0 -1.32497,-3.73136 -6.55667,0 -1.32497,3.73136 -2.07514,0 5.55319,-14.54548"
         style="font-size:19.95253372px;font-style:normal;font-weight:normal;text-align:start;text-anchor:start;fill:#000000;font-family:Calibri"
         id="path4405" />
    </g>
    <path
       style="fill:#000000;fill-opacity:1;fill-rule:nonzero;stroke:#000000;stroke-width:0.00937619px;stroke-linecap:butt;stroke-linejoin:round;stroke-opacity:1;stroke-dasharray:none"
       d="m 141.09292,157.59501 0,-35.07633 -1.95025,0 0,35.07633 1.95025,0 z m 2.77535,-33.82929 -3.75048,-7.50096 -3.75047,7.50096 7.50095,0 z"
       id="path3165"
       inkscape:connector-curvature="0" />
  </g>
</svg>
